<svg height="682pt" viewBox="-107 -21 682 682.66669" style="fill:#94C1FF;" width="682pt" xmlns="http://www.w3.org/2000/svg"><path d="m254.042969 56.25h-18.75v-18.75h18.75zm-31.25 0h-18.75v-18.75h18.75zm0 0"/><path d="m328.503906 40.625v94.289062h94.289063v-18.75h-75.539063v-75.539062zm0 0"/><path d="m341.765625 0h-347.097656v559.996094h18.75v-541.246094h320.578125l110.671875 110.667969v491.832031h-431.25v-36.253906h-18.75v55.003906h468.75v-518.351562zm0 0"/><path d="m79.042969 149.730469h175v18.75h-175zm0 0"/><path d="m116.542969 224.730469h262.5v18.75h-262.5zm0 0"/><path d="m79.042969 268.480469h300v18.75h-300zm0 0"/><path d="m79.042969 312.230469h262.5v18.75h-262.5zm0 0"/><path d="m116.542969 355.980469h262.5v18.75h-262.5zm0 0"/><path d="m79.042969 399.730469h300v18.75h-300zm0 0"/><path d="m79.042969 443.480469h262.5v18.75h-262.5zm0 0"/></svg>