<?xml version="1.0" encoding="iso-8859-1"?>
<!-- Generator: Adobe Illustrator 19.0.0, SVG Export Plug-In . SVG Version: 6.00 Build 0)  -->
<svg version="1.1" id="Capa_1" xmlns="http://www.w3.org/2000/svg" xmlns:xlink="http://www.w3.org/1999/xlink" x="0px" y="0px"
	 viewBox="0 0 512 512" style="enable-background:new 0 0 512 512;" xml:space="preserve">
<path style="fill:#FFFFFF;" d="M72.04,92c13.28,0,24,10.72,24,24s-10.72,24-24,24s-24-10.72-24-24S58.76,92,72.04,92z"/>
<path style="fill:#D7E9FF;" d="M479.96,116c8.872,0,16,7.2,16,16s-7.128,16-16,16h-63.84c-17.68,0-32-14.32-32-32s14.32-32,32-32
	c17.6,0,32,14.32,32,32H479.96z"/>
<path style="fill:#E6E9ED;" d="M292.04,220.4h-44c-13.28,0-24-10.72-24-24s10.72-24,24-24s24,10.72,24,24h20c6.64,0,12,5.36,12,12
	S298.68,220.4,292.04,220.4z"/>
<path style="fill:#D7E9FF;" d="M292.04,220.4h-44c-13.28,0-24-10.72-24-24s10.72-24,24-24s24,10.72,24,24h20c6.64,0,12,5.36,12,12
	S298.68,220.4,292.04,220.4z"/>
<g>
	<polygon style="fill:#94C1FF;" points="480.04,340 480.04,372 464.04,360.872 388.04,308 312.04,360.872 296.04,372 296.04,340 
		388.04,276 	"/>
	<rect x="368.08" y="388" style="fill:#94C1FF;" width="40" height="72"/>
</g>
<polygon style="fill:#D7E9FF;" points="464.04,360.872 464.04,460 408.04,460 408.04,388 368.04,388 368.04,460 312.04,460 
	312.04,360.872 388.04,308 "/>
<polygon style="fill:#94C1FF;" points="216.04,340 216.04,372 200.04,360.872 124.04,308 48.04,360.872 32.04,372 32.04,340 
	124.04,276 "/>
<polygon style="fill:#D7E9FF;" points="200.04,360.872 200.04,460 144.04,460 144.04,388 104.04,388 104.04,460 48.04,460 
	48.04,360.872 124.04,308 "/>
<g>
	<polygon style="fill:#94C1FF;" points="168.04,338.608 168.04,460 200.04,460 200.04,360.872 	"/>
	<rect x="104.08" y="388" style="fill:#94C1FF;" width="40" height="72"/>
</g>
<polygon style="fill:#5C9EFF;" points="184.04,349.752 200.04,360.872 216.04,372 216.04,340 184.04,317.736 "/>
<polygon style="fill:#94C1FF;" points="432.04,338.608 432.04,460 464.04,460 464.04,360.872 "/>
<polygon style="fill:#5C9EFF;" points="448.04,349.752 464.04,360.872 480.04,372 480.04,340 448.04,317.736 "/>
<g>
	<path style="fill:#116FFF;" d="M504,468H8c-4.424,0-8-3.576-8-8s3.576-8,8-8h496c4.424,0,8,3.576,8,8S508.424,468,504,468z"/>
	<path style="fill:#116FFF;" d="M256,468c-4.424,0-8-3.576-8-8v-64c0-4.424,3.576-8,8-8c4.424,0,8,3.576,8,8v64
		C264,464.424,260.424,468,256,468z"/>
	<path style="fill:#116FFF;" d="M48,468c-4.424,0-8-3.576-8-8v-99.128c0-4.424,3.576-8,8-8s8,3.576,8,8V460
		C56,464.424,52.424,468,48,468z"/>
	<path style="fill:#116FFF;" d="M200,468c-4.424,0-8-3.576-8-8v-99.128c0-4.424,3.576-8,8-8s8,3.576,8,8V460
		C208,464.424,204.424,468,200,468z"/>
	<path style="fill:#116FFF;" d="M32.008,380c-2.528,0-5.024-1.192-6.576-3.432c-2.52-3.624-1.624-8.616,2-11.144l92-64
		c3.624-2.52,8.616-1.632,11.144,2c2.52,3.624,1.624,8.616-2,11.144l-92,64C35.176,379.536,33.584,380,32.008,380z"/>
	<path style="fill:#116FFF;" d="M215.992,380c-1.576,0-3.168-0.464-4.56-1.432l-92-64c-3.624-2.52-4.52-7.512-2-11.144
		c2.512-3.632,7.504-4.52,11.144-2l92,64c3.624,2.52,4.52,7.512,2,11.144C221.016,378.808,218.52,380,215.992,380z"/>
	<path style="fill:#116FFF;" d="M32.008,348c-2.528,0-5.024-1.192-6.576-3.432c-2.52-3.624-1.624-8.616,2-11.144l92-64
		c3.624-2.52,8.616-1.632,11.144,2c2.52,3.624,1.624,8.616-2,11.144l-92,64C35.176,347.536,33.584,348,32.008,348z"/>
	<path style="fill:#116FFF;" d="M215.992,348c-1.576,0-3.168-0.464-4.56-1.432l-92-64c-3.624-2.52-4.52-7.512-2-11.144
		c2.512-3.632,7.504-4.52,11.144-2l92,64c3.624,2.52,4.52,7.512,2,11.144C221.016,346.808,218.52,348,215.992,348z"/>
	<path style="fill:#116FFF;" d="M32,380c-4.424,0-8-3.576-8-8v-32c0-4.424,3.576-8,8-8s8,3.576,8,8v32C40,376.424,36.424,380,32,380
		z"/>
	<path style="fill:#116FFF;" d="M216,380c-4.424,0-8-3.576-8-8v-32c0-4.424,3.576-8,8-8s8,3.576,8,8v32
		C224,376.424,220.424,380,216,380z"/>
	<path style="fill:#116FFF;" d="M144,468h-40c-4.424,0-8-3.576-8-8v-72c0-4.424,3.576-8,8-8h40c4.424,0,8,3.576,8,8v72
		C152,464.424,148.424,468,144,468z M112,452h24v-56h-24V452z"/>
	<path style="fill:#116FFF;" d="M312,468c-4.424,0-8-3.576-8-8v-99.128c0-4.424,3.576-8,8-8s8,3.576,8,8V460
		C320,464.424,316.424,468,312,468z"/>
	<path style="fill:#116FFF;" d="M464,468c-4.424,0-8-3.576-8-8v-99.128c0-4.424,3.576-8,8-8s8,3.576,8,8V460
		C472,464.424,468.424,468,464,468z"/>
	<path style="fill:#116FFF;" d="M296.008,380c-2.528,0-5.024-1.192-6.576-3.432c-2.52-3.624-1.624-8.616,2-11.144l92-64
		c3.624-2.52,8.616-1.632,11.144,2c2.52,3.624,1.624,8.616-2,11.144l-92,64C299.176,379.536,297.584,380,296.008,380z"/>
	<path style="fill:#116FFF;" d="M479.992,380c-1.576,0-3.168-0.464-4.56-1.432l-92-64c-3.624-2.52-4.52-7.512-2-11.144
		c2.52-3.632,7.512-4.52,11.144-2l92,64c3.624,2.52,4.52,7.512,2,11.144C485.016,378.808,482.52,380,479.992,380z"/>
	<path style="fill:#116FFF;" d="M296.008,348c-2.528,0-5.024-1.192-6.576-3.432c-2.52-3.624-1.624-8.616,2-11.144l92-64
		c3.624-2.52,8.616-1.632,11.144,2c2.52,3.624,1.624,8.616-2,11.144l-92,64C299.176,347.536,297.584,348,296.008,348z"/>
	<path style="fill:#116FFF;" d="M479.992,348c-1.576,0-3.168-0.464-4.56-1.432l-92-64c-3.624-2.52-4.52-7.512-2-11.144
		c2.52-3.632,7.512-4.52,11.144-2l92,64c3.624,2.52,4.52,7.512,2,11.144C485.016,346.808,482.52,348,479.992,348z"/>
	<path style="fill:#116FFF;" d="M296,380c-4.424,0-8-3.576-8-8v-32c0-4.424,3.576-8,8-8s8,3.576,8,8v32
		C304,376.424,300.424,380,296,380z"/>
	<path style="fill:#116FFF;" d="M480,380c-4.424,0-8-3.576-8-8v-32c0-4.424,3.576-8,8-8s8,3.576,8,8v32
		C488,376.424,484.424,380,480,380z"/>
	<path style="fill:#116FFF;" d="M408,468h-40c-4.424,0-8-3.576-8-8v-72c0-4.424,3.576-8,8-8h40c4.424,0,8,3.576,8,8v72
		C416,464.424,412.424,468,408,468z M376,452h24v-56h-24V452z"/>
	<path style="fill:#116FFF;" d="M72,148c-17.648,0-32-14.352-32-32s14.352-32,32-32s32,14.352,32,32S89.648,148,72,148z M72,100
		c-8.824,0-16,7.176-16,16s7.176,16,16,16s16-7.176,16-16S80.824,100,72,100z"/>
	<path style="fill:#116FFF;" d="M72,76c-4.424,0-8-3.584-8-8V52c0-4.416,3.576-8,8-8s8,3.584,8,8v16C80,72.416,76.424,76,72,76z"/>
	<path style="fill:#116FFF;" d="M72,188c-4.424,0-8-3.584-8-8v-16c0-4.416,3.576-8,8-8s8,3.584,8,8v16C80,184.416,76.424,188,72,188
		z"/>
	<path style="fill:#116FFF;" d="M38.064,90.056c-2.048,0-4.096-0.784-5.656-2.344L21.096,76.4c-3.128-3.128-3.128-8.184,0-11.312
		s8.184-3.128,11.312,0L43.72,76.4c3.128,3.128,3.128,8.184,0,11.312C42.16,89.28,40.112,90.056,38.064,90.056z"/>
	<path style="fill:#116FFF;" d="M117.256,169.256c-2.048,0-4.096-0.784-5.656-2.344l-11.32-11.32c-3.128-3.128-3.128-8.184,0-11.312
		s8.184-3.128,11.312,0l11.32,11.32c3.128,3.128,3.128,8.184,0,11.312C121.352,168.48,119.304,169.256,117.256,169.256z"/>
	<path style="fill:#116FFF;" d="M24,124H8c-4.424,0-8-3.584-8-8s3.576-8,8-8h16c4.424,0,8,3.584,8,8S28.424,124,24,124z"/>
	<path style="fill:#116FFF;" d="M136.008,124H120c-4.424,0-8-3.584-8-8s3.576-8,8-8h16.008c4.424,0,8,3.584,8,8
		S140.432,124,136.008,124z"/>
	<path style="fill:#116FFF;" d="M26.752,169.248c-2.048,0-4.096-0.784-5.656-2.344c-3.128-3.128-3.128-8.184,0-11.312l11.312-11.312
		c3.128-3.128,8.184-3.128,11.312,0s3.128,8.184,0,11.312l-11.312,11.312C30.84,168.472,28.8,169.248,26.752,169.248z"/>
	<path style="fill:#116FFF;" d="M105.944,90.064c-2.048,0-4.096-0.784-5.656-2.344c-3.128-3.12-3.128-8.184,0-11.312l11.32-11.328
		c3.128-3.128,8.184-3.128,11.312,0c3.128,3.12,3.128,8.184,0,11.312L111.6,87.72C110.04,89.28,107.992,90.064,105.944,90.064z"/>
	<path style="fill:#116FFF;" d="M292,228.4c-4.424,0-8-3.584-8-8s3.576-8,8-8c2.2,0,4-1.792,4-4s-1.8-4-4-4c-4.424,0-8-3.584-8-8
		s3.576-8,8-8c11.032,0,20,8.976,20,20S303.032,228.4,292,228.4z"/>
	<path style="fill:#116FFF;" d="M248,228.4c-17.648,0-32-14.352-32-32s14.352-32,32-32s32,14.352,32,32c0,4.416-3.576,8-8,8
		s-8-3.584-8-8c0-8.824-7.176-16-16-16s-16,7.176-16,16s7.176,16,16,16c4.424,0,8,3.584,8,8S252.424,228.4,248,228.4z"/>
	<path style="fill:#116FFF;" d="M292,228.4h-44c-4.424,0-8-3.584-8-8s3.576-8,8-8h44c4.424,0,8,3.584,8,8S296.424,228.4,292,228.4z"
		/>
	<path style="fill:#116FFF;" d="M292,204.4h-20c-4.424,0-8-3.584-8-8s3.576-8,8-8h20c4.424,0,8,3.584,8,8S296.424,204.4,292,204.4z"
		/>
	<path style="fill:#116FFF;" d="M479.952,156h-63.904c-22.056,0-40-17.944-40-40s17.944-40,40-40c19.32,0,35.48,13.768,39.192,32
		h24.712c13.232,0,24,10.768,24,24S493.184,156,479.952,156z M416.048,92c-13.232,0-24,10.768-24,24s10.768,24,24,24h63.904
		c4.416,0,8-3.592,8-8s-3.584-8-8-8h-31.904c-4.424,0-8-3.584-8-8C440.048,102.768,429.28,92,416.048,92z"/>
</g>
<g>
</g>
<g>
</g>
<g>
</g>
<g>
</g>
<g>
</g>
<g>
</g>
<g>
</g>
<g>
</g>
<g>
</g>
<g>
</g>
<g>
</g>
<g>
</g>
<g>
</g>
<g>
</g>
<g>
</g>
</svg>
