<svg xmlns="http://www.w3.org/2000/svg" xmlns:xlink="http://www.w3.org/1999/xlink" viewBox="0 0 345.5 302.46"><defs><style>.cls-1,.cls-9{fill:#0000de;}.cls-2{fill:#fea48e;}.cls-3{fill:#e57864;}.cls-4{fill:#fff;}.cls-5{fill:#3215ff;}.cls-6{fill:#06a;}.cls-7{fill:url(#linear-gradient);}.cls-8{fill:url(#linear-gradient-2);}.cls-9{opacity:0.11;}.cls-10{fill:#3b3b56;}.cls-11{fill:#ffd890;}.cls-12{fill:#ffbf6f;}.cls-13{fill:#e7a257;}.cls-14{fill:#bc4f5d;}.cls-15{fill:#9d3947;}.cls-16{fill:#468b97;}.cls-17{fill:#46aabc;}.cls-18{fill:#46cae0;}.cls-19{opacity:0.3;}.cls-20{fill:#3c3ccd;}.cls-21{fill:#fdfdfd;}</style><linearGradient id="linear-gradient" x1="-1277.75" y1="-820.41" x2="-1275.74" y2="-820.41" gradientTransform="matrix(0.49, -0.87, -0.87, -0.49, 120.08, -1445.1)" gradientUnits="userSpaceOnUse"><stop offset="0" stop-color="#151d80"/><stop offset="0.11" stop-color="#131b6d"/><stop offset="0.29" stop-color="#101857"/><stop offset="0.49" stop-color="#0e1647"/><stop offset="0.71" stop-color="#0d143d"/><stop offset="1" stop-color="#0d143a"/></linearGradient><linearGradient id="linear-gradient-2" x1="-1287.2" y1="-813.84" x2="-1273.79" y2="-813.84" gradientTransform="matrix(0.49, -0.87, -0.87, -0.49, 125.78, -1437.77)" gradientUnits="userSpaceOnUse"><stop offset="0" stop-color="#ddebec"/><stop offset="0.06" stop-color="#d1e2ed"/><stop offset="0.39" stop-color="#92b0f3"/><stop offset="0.66" stop-color="#648cf7"/><stop offset="0.88" stop-color="#4875f9"/><stop offset="1" stop-color="#3d6dfa"/></linearGradient></defs><title>contact us 5</title><g id="Layer_2" data-name="Layer 2"><g id="OBJECTS"><path class="cls-1" d="M5.6,158.21c5.93-16.53,15.27-21.56,24.15-32.16,10.85-13,18.16-22.36,15.35-39C40.49,59.8,38.52-8.08,110.58.79c25.83,3.18,46.24,23,61.08,42.73C184.29,60.33,207,61.82,225.31,65.73c22.48,4.82,45.37,12.09,66.16,22.75,42.83,21.95,55.62,53.5,53.87,93.88-.53,12.2-2.25,31.41-22.86,53.89-27.81,30.34-68.22,34.41-116.86,20.47-11.13-3.19-21.66-8.19-32.61-12a153.89,153.89,0,0,0-35.19-7.64c-27.94-2.7-56.9,2.18-83.69-6.16a88.31,88.31,0,0,1-37.43-23.22C3.89,194.35-.66,175.65,5.6,158.21Z"/><path class="cls-2" d="M195.39,84.08c1.57-2.07,4.64-2.42,8,.33a12.64,12.64,0,0,1,3.36,5.93c.56,3-2.78,3.72-5.48,3.51s-5.66-4.19-6.09-7.41A4.14,4.14,0,0,1,195.39,84.08Z"/><path class="cls-3" d="M199.41,87s2.56.13,4.44,3.38c0,0-.08-3.92-4.87-4.33Z"/><rect class="cls-1" x="221.81" y="27.69" width="25.3" height="20.12" rx="2.36" ry="2.36"/><path class="cls-4" d="M235.29,30.52a5.77,5.77,0,0,1,6.08,6.12c0,3.15-2.11,4.73-3.92,4.73a1.87,1.87,0,0,1-2-1.31h0a2.79,2.79,0,0,1-2.06,1.13,2.29,2.29,0,0,1-2.27-2.58c0-2.1,1.5-4.21,3.47-4.21a1.34,1.34,0,0,1,1.31.86h0l.24-.72h1.56l-.79,3.78c-.24,1,0,1.48.79,1.48,1,0,2-1.2,2-3.09a4.3,4.3,0,0,0-4.69-4.66,6.09,6.09,0,0,0-5.84,6.38,4.71,4.71,0,0,0,5,5,6,6,0,0,0,2.61-.67l.55,1.38a6.89,6.89,0,0,1-3.37.83c-3.44,0-6.51-2.1-6.51-6.48A7.65,7.65,0,0,1,235.29,30.52Zm-1.38,9.09c.36,0,.71-.21,1.14-.77l.41-2.32a.86.86,0,0,0-.79-.5c-1,0-1.65,1.41-1.65,2.44C233,39.24,233.35,39.61,233.92,39.61Z"/><rect class="cls-1" y="82.36" width="25.3" height="20.12" rx="2.36" ry="2.36"/><path class="cls-4" d="M13.48,85.19a5.77,5.77,0,0,1,6.08,6.12c0,3.15-2.11,4.73-3.92,4.73a1.87,1.87,0,0,1-2-1.31h0a2.79,2.79,0,0,1-2.06,1.13A2.29,2.29,0,0,1,9.3,93.29c0-2.1,1.5-4.21,3.47-4.21a1.34,1.34,0,0,1,1.31.86h0l.24-.72h1.56L15.13,93c-.24,1,0,1.48.79,1.48,1,0,2-1.2,2-3.09a4.3,4.3,0,0,0-4.69-4.66A6.09,6.09,0,0,0,7.43,93.1a4.71,4.71,0,0,0,5,5,6,6,0,0,0,2.61-.67l.55,1.38a6.89,6.89,0,0,1-3.37.83c-3.44,0-6.51-2.1-6.51-6.48A7.65,7.65,0,0,1,13.48,85.19Zm-1.38,9.09c.36,0,.71-.21,1.14-.77l.41-2.32a.86.86,0,0,0-.79-.5c-1,0-1.65,1.41-1.65,2.44C11.21,93.91,11.54,94.29,12.11,94.29Z"/><circle class="cls-5" cx="209.55" cy="120.21" r="2" transform="translate(41.64 293.9) rotate(-75.81)"/><rect class="cls-6" x="190.12" y="73.57" width="17.85" height="9.2" rx="0.85" ry="0.85" transform="translate(74.46 251.98) rotate(-75.81)"/><rect class="cls-7" x="200.92" y="69.32" width="0.17" height="2.21" transform="translate(83.46 248.03) rotate(-75.81)"/><rect class="cls-8" x="192.28" y="73.96" width="13.74" height="7.61" transform="translate(74.94 251.77) rotate(-75.81)"/><ellipse class="cls-9" cx="182.26" cy="298.48" rx="79.31" ry="3.98"/><circle class="cls-10" cx="191.69" cy="52.33" r="3.7" transform="translate(-7 49.73) rotate(-14.52)"/><path class="cls-2" d="M171.11,69.26c2.74,4.63,12.45,1.8,12.45,1.8l-.23-4.54-.08-1.64,0-.42c-3.65-3.47-11.87-4.9-11.87-4.9Z"/><path class="cls-3" d="M178.66,62.64s2.82,3.14,4.66,3.88l-.08-1.64Z"/><path class="cls-3" d="M192.43,53.64a43.43,43.43,0,0,0,1.88,4.6A.51.51,0,0,1,194,59a14.25,14.25,0,0,1-2.28.27Z"/><path class="cls-2" d="M188.51,40.88A13.74,13.74,0,0,1,192.9,51c-.17,6.21-1.48,15.24-2.92,15.69-3.48,1.09-6.43-1.64-11.78-4.21-4.64-2.23-11.35-2.54-12.63-9.61s3.12-15.81,10-16.15C184.7,36.25,188.51,40.88,188.51,40.88Z"/><path class="cls-3" d="M184.4,56.3a6.28,6.28,0,0,1-4.08.53c-2.49-.75-3.23-4.93-2.8-6.71l-.34,2.08s-.69,3.92,1.82,5.09A4.94,4.94,0,0,0,184.4,56.3Z"/><path class="cls-10" d="M192.91,35.35c-2.32-1.25-3.75,2.81-3.75,2.81s-.28-6.85-2.5-8.19c-3.1-1.87-3.92,4.13-3.92,4.13s-.58-4.21-2.39-3-.33,2.25-3.79,3.79-8.75,3.83-9.92,7.75c0,0-2.6-1.17-3.35.65S165,45.17,165,45.17s-3.35,2.19-1.83,3.44,2.39-1.37,2.39-1.37a13.93,13.93,0,0,0,1.56,10.13c2.25,4,8.77,4.87,10.58-1.33,0,0-1.24-4.51.21-5.91,1.76-1.68,3.8-1.08,4.17.17,0,0,0,13.5,2.47,15.88a5.09,5.09,0,0,0,6.87.69c1.87-1.32,2.38-7.74.94-8.74s-3.38,1.12-5.56.68a6.5,6.5,0,0,1-1.19-3.19c-.23-1.86-.35-6-1.2-8a3.8,3.8,0,0,1-.26-2.34,1.59,1.59,0,0,1,1.59-1.45c1.06,0,4,2.06,6,.63C193.18,43.37,195.48,36.74,192.91,35.35Z"/><path class="cls-10" d="M193,52.67l.29-.69c-.33-.14-8.11-3.42-11.46-3.22l0,.75C185,49.33,192.95,52.64,193,52.67Z"/><path class="cls-2" d="M199.89,277.52l.37,5.24.21,2.93c4.83,1.67,9.83-.75,9.83-.75v-8.17A24.52,24.52,0,0,1,199.89,277.52Z"/><path class="cls-3" d="M199.89,277.52l.37,5.24a68.33,68.33,0,0,0,10-2v-4A24.52,24.52,0,0,1,199.89,277.52Z"/><path class="cls-2" d="M158.5,277.32l.16,4.88.11,3.3c4.76,1.85,9.85-.37,9.85-.37l.13-3.45.18-4.71A24.54,24.54,0,0,1,158.5,277.32Z"/><path class="cls-3" d="M158.5,277.32l.16,4.88a27,27,0,0,0,10.1-.51l.18-4.71A24.54,24.54,0,0,1,158.5,277.32Z"/><path class="cls-11" d="M150.79,203c0,.32,0,.66,0,1,.15,4.81.62,11.15,2.06,12.06,2.36,1.5,12.9.38,13.26-2.7.21-1.79-.55-7.12-1.23-11.3l-.16-1c-.43-2.56-.78-4.47-.78-4.47l-13.2,1.83S150.73,200.38,150.79,203Z"/><path class="cls-12" d="M150.79,203c0,.32,0,.66,0,1,.64,0,1.29.06,1.93.06a42.86,42.86,0,0,0,12.16-2l-.16-1A39.87,39.87,0,0,1,150.79,203Z"/><path class="cls-11" d="M162.44,192.14a1.51,1.51,0,0,1,1.51,1.11,47.46,47.46,0,0,1,1.51,7c0,1.78-10.49,2.71-14.42,2.71-.5,0-.85-.47-1-1a35.19,35.19,0,0,1-.68-7.16,1.5,1.5,0,0,1,1.29-1.43C153.1,193,158.62,192.28,162.44,192.14Z"/><path class="cls-12" d="M151.91,183.37c0,.34.07.69.11,1,.44,3.94.87,7.31,1.06,9.35.47,4.91.45,18.45.63,28.88,0,1,0,2,.06,3,0,2,.11,3.76.19,5.28.09,1.74.08,4.28,0,7.27l0,1c0,2-.12,4.21-.2,6.5h0c0,.34,0,.68,0,1-.46,13.28-1.19,29.12,0,30.45,1.75,2,20.25,4.75,21.57.5,1.14-3.67-2.17-24.85-3.09-30.58l-.16-1-.07-.41s-.25-3.36-.32-7.4c0-.34,0-.68,0-1a65,65,0,0,1,.33-7.82c.75-6.25,1.5-10.5,1.5-18.75,0-4.81-.51-16.42-.94-25.26,0-.34,0-.67,0-1-.12-2.44-.23-4.62-.31-6.34-.12-2.4-.2-3.89-.2-3.89,1.75,2.75,7,8,7,8,.14,1.24.34,2.56.6,3.94.06.33.13.66.19,1,3.08,15.42,12.21,37.25,12.21,37.25-.14.8-.25,1.78-.33,2.93-.26,3.58-.24,8.71,0,14.35,0,.34,0,.69,0,1,.09,2.28.22,4.63.37,7,0,.36,0,.71.07,1.07.87,12.84,2.5,25.48,4.12,27,3,2.75,15.5,1.5,18.5-1.25s-2.25-18-3.75-23a10,10,0,0,1-.24-1c-.06-.3-.11-.64-.16-1-.27-1.91-.5-4.69-.69-7.84l-.06-1c-.62-10.83-.85-25.35-.85-25.35,0-3.49-2.48-19.74-4.87-34.64-.05-.33-.1-.66-.16-1-2.18-13.54-4.24-25.69-4.24-25.69-16.46,2.47-32.71,3.76-48.6,2.83C150.11,164.65,151,175.09,151.91,183.37Z"/><path class="cls-13" d="M179.57,186c.06.33.13.66.19,1a127.09,127.09,0,0,0,24.34-4.56c-.05-.33-.1-.66-.16-1A125.84,125.84,0,0,1,179.57,186Z"/><path class="cls-13" d="M151.91,183.37c0,.34.07.69.11,1a125.52,125.52,0,0,0,16.32,1c1.61,0,3,0,4.19-.06,0-.34,0-.67,0-1A129.11,129.11,0,0,1,151.91,183.37Z"/><path class="cls-13" d="M191.61,241.54c0,.34,0,.69,0,1a67.11,67.11,0,0,0,12.53,1.06c2.14,0,4.09-.08,5.7-.17l-.06-1A77.41,77.41,0,0,1,191.61,241.54Z"/><path class="cls-13" d="M192,249.56c0,.36,0,.71.07,1.07a61.83,61.83,0,0,0,15.47,1.75c1.17,0,2.24,0,3.17-.06-.06-.3-.11-.64-.16-1C206.16,251.46,198.52,251.37,192,249.56Z"/><path class="cls-13" d="M154,239.13c1.55.16,3.14.22,4.74.22a82.63,82.63,0,0,0,12.94-1.15c0-.34,0-.68,0-1a72.26,72.26,0,0,1-17.65,1Z"/><path class="cls-13" d="M153.74,246.65a42.43,42.43,0,0,0,9.49,1,74.68,74.68,0,0,0,9-.58l-.16-1c-5.11.62-12.32,1-18.26-.38C153.76,246,153.75,246.31,153.74,246.65Z"/><path class="cls-11" d="M196,202.47c0,.32,0,.66,0,1,.15,4.81.62,11.15,2.06,12.06,2.36,1.5,12.9.38,13.26-2.7.21-1.79-.55-7.12-1.23-11.3l-.16-1c-.43-2.55-.78-4.47-.78-4.47L196,197.92S196,199.87,196,202.47Z"/><path class="cls-12" d="M196,202.47c0,.32,0,.66,0,1,.64,0,1.29.06,1.93.06a42.86,42.86,0,0,0,12.16-2l-.16-1A39.87,39.87,0,0,1,196,202.47Z"/><path class="cls-11" d="M207.68,191.62a1.51,1.51,0,0,1,1.51,1.11,47.45,47.45,0,0,1,1.51,7c0,1.78-10.49,2.71-14.42,2.71-.5,0-.85-.47-1-1a35.19,35.19,0,0,1-.68-7.16,1.5,1.5,0,0,1,1.29-1.43C198.34,192.5,203.86,191.76,207.68,191.62Z"/><path class="cls-13" d="M153.72,222.62c0,1,0,2,.06,3a18.46,18.46,0,0,0,8.06-2A59.5,59.5,0,0,1,153.72,222.62Z"/><path class="cls-13" d="M191.64,227.2a20,20,0,0,0,10-.84,31.92,31.92,0,0,1-9.65-2.08C191.83,225.07,191.72,226.05,191.64,227.2Z"/><path class="cls-13" d="M172.17,178c-.12-2.4-.2-3.89-.2-3.89s-3.25-4.5-4.25-8.33C167.72,165.77,167.57,173.93,172.17,178Z"/><path class="cls-13" d="M215,291.61c.48-.34,4.65-3.39,4.73-5.74a1.8,1.8,0,0,0-.68-1.49,1.46,1.46,0,0,0-1.39-.32c-2.11.61-4,6.09-4.16,6.71l.82.27c.72-2.19,2.32-5.79,3.58-6.15a.61.61,0,0,1,.6.15.93.93,0,0,1,.37.8c-.06,1.63-3.18,4.21-4.37,5.07Z"/><path class="cls-13" d="M214.8,291c.14-.58,1.34-5.77-.09-7.61a1.7,1.7,0,0,0-1.36-.68,1.3,1.3,0,0,0-1.11.54c-1.2,1.66.62,7.11.83,7.72l.81-.28c-.74-2.16-1.66-6-.95-6.94a.44.44,0,0,1,.4-.19.84.84,0,0,1,.69.35c1,1.28.29,5.4-.06,6.88Z"/><path class="cls-14" d="M198.45,297.87a6.14,6.14,0,0,0,.68,2.14h27.39a17.56,17.56,0,0,0-.81-2.14c-1.14-2.52-3.52-6.4-7.53-6.66-6-.38-4.74-6.53-7.9-8.08,0,0-.5,2.29-2.57,2.29-2.82,0-5.69-3.19-7.43-1.65-1.15,1-.89,6-.89,6S197.94,294.35,198.45,297.87Z"/><path class="cls-15" d="M198.45,297.87a6.14,6.14,0,0,0,.68,2.14h27.39a17.56,17.56,0,0,0-.81-2.14Z"/><path class="cls-13" d="M172.58,289.38c.47-.33,4.56-3.33,4.64-5.63a1.78,1.78,0,0,0-.67-1.48,1.45,1.45,0,0,0-1.37-.31c-2.07.6-3.88,6-4.08,6.58l.83.27c.7-2.14,2.27-5.66,3.49-6a.57.57,0,0,1,.57.15.9.9,0,0,1,.36.77c-.06,1.59-3.1,4.11-4.27,4.95Z"/><path class="cls-13" d="M170.71,288.8l.78-.41c-.67-1.27-2.27-4.89-1.61-6.34a.9.9,0,0,1,.66-.53.57.57,0,0,1,.57.13c.94.86.77,4.71.44,6.94l.87.13c.09-.64.88-6.25-.71-7.71a1.45,1.45,0,0,0-1.37-.33,1.78,1.78,0,0,0-1.26,1C168.12,283.79,170.44,288.29,170.71,288.8Z"/><path class="cls-14" d="M156.8,297.39a6.36,6.36,0,0,0,.71,2.19h24.75a4,4,0,0,0-.77-2.19c-1.33-2.06-2.16-4.79-7.12-6.72-2.67-1-2.42-6.6-5.65-8.19a7.7,7.7,0,0,1-4.28,2.65c-2.81.63-4-3.72-5.77-2.14-1.17,1-.93,7.14-.93,7.14A17.75,17.75,0,0,0,156.8,297.39Z"/><path class="cls-15" d="M156.8,297.39a6.36,6.36,0,0,0,.71,2.19h24.75a4,4,0,0,0-.77-2.19Z"/><path class="cls-14" d="M148.39,151.71c.18,5.06.64,8.59,1.58,9.39,4.49,3.81,50.59-.16,51.5-2.83.34-1,.07-3.69-.46-7.06-.56-3.56-1.41-7.88-2.15-11.82-.42-2.24-.8-4.35-1.06-6.12-.3-2-.55-6.38-.74-11.8-.06-1.71-.12-3.53-.16-5.42-.4-15.27-.43-34.86-.1-37.28.5-3.67-7.66-6.34-13.24-7.72s-12.41-3.17-12.41-3.17-17.37,5.55-18.68,8.89-2.84,9.31-3,26.16c-.09,9.36-.84,23.75-1.08,35.9C148.28,143.63,148.26,148.07,148.39,151.71Z"/><path class="cls-15" d="M148.39,151.71c1.09,2.07,2.67,4.13,4.78,4.64,4.59,1.1,31,1.67,37.1-.58s4.83-9.42,4.83-9.42c1.36,2,4.21,3.88,5.9,4.85-.56-3.56-1.41-7.88-2.15-11.82l-50.47-.55C148.28,143.63,148.26,148.07,148.39,151.71Z"/><path class="cls-15" d="M191.59,105.1s2.06,12.15,5.47,16.37c-.06-1.71-.11-3.53-.16-5.42h0S192.53,107.85,191.59,105.1Z"/><path class="cls-15" d="M183.56,67.88s1.88,2.47,1.86,3.66c0,0-7,1-16.68-2.86a6,6,0,0,1,2.46-3.21S175.29,67.6,183.56,67.88Z"/><path class="cls-15" d="M213.76,130s1.92-.8.11-13.06c-1-7-4.31-25-8.73-28.5C195.07,80.36,200.9,116.07,213.76,130Z"/><path class="cls-14" d="M188.72,77.2a5.3,5.3,0,0,1,8.84,1.5c5.41,12.58,18.77,44.61,16.85,50.18-2.4,7-18.45-6.3-25.71-32.68C185.79,85.65,186,80.28,188.72,77.2Z"/><path class="cls-10" d="M138.45,297.39a1,1,0,0,0,1-1l1.86-222a1,1,0,0,0-1-1h0a1,1,0,0,0-1,1l-1.86,222a1,1,0,0,0,1,1Z"/><path class="cls-2" d="M136.39,95.27c1.05,2,6,.11,6,.11l-.11-2.64a4.47,4.47,0,0,0,1.54-1.88c.41-1.12.82-4.85-.43-6.75a3.37,3.37,0,0,0-2.22-1.22,9.14,9.14,0,0,0-2-.16,5.83,5.83,0,0,0-2.93.63C135.39,84.1,134.68,92,136.39,95.27Z"/><path class="cls-10" d="M139.19,85.06a1.69,1.69,0,0,0,2,0l.09-2.17a2.52,2.52,0,0,0-2-.16Z"/><path class="cls-14" d="M143.35,97.78l.07.26c2.17,7.88,1.36,21.69-6.45,31.33,0,0-5.47-.21-4.25-12.55,0,0,1.83-15.91,3.14-22.94,0,0,3.41,2.34,6.51,0l1,3.89"/><path class="cls-15" d="M135.09,114h0a27.72,27.72,0,0,0,5.84-9.36c.88-2.35,1.85-5,2.49-6.63l-.07-.26C141.75,100.52,136.67,109.41,135.09,114Z"/><path class="cls-14" d="M160.25,77.2a5.3,5.3,0,0,0-8.84,1.5c-5.41,12.58-19,44.53-16.07,49.66,2.53,4.48,17.66-5.78,24.92-32.15C163.17,85.65,163,80.28,160.25,77.2Z"/><path class="cls-16" d="M197.88,133.8s4.59,8.55,2.71,14.93c0,0-11.25-5-16.19-29.32-3.91-19.26,1-47.87,1-47.87s6.26-.86,9.27,3.59C194.69,75.13,187.53,113.24,197.88,133.8Z"/><path class="cls-17" d="M144.2,143.78a3.35,3.35,0,0,0,2.66,3.06c2.11.37,5.11.47,6.78-1.33,1.16-1.26.73-15.29.34-24-.06-1.31-.11-2.5-.17-3.5a3.7,3.7,0,0,0-3.42-3.67,9.8,9.8,0,0,0-5.93,1.39c-.92.68-1.31,3.51-1.4,7.2A197.6,197.6,0,0,0,144.2,143.78Z"/><path class="cls-18" d="M143.06,123A6.93,6.93,0,0,0,150,125a5.78,5.78,0,0,0,4-3.49c-.06-1.31-.11-2.5-.17-3.5a3.7,3.7,0,0,0-3.42-3.67,9.8,9.8,0,0,0-5.93,1.39C143.53,116.45,143.15,119.28,143.06,123Z"/><path class="cls-17" d="M147.14,124.83q0,.89,0,1.77c0,1.48.1,3,.18,4.45,0,.59.06,1.19.1,1.78q.14,2.46.34,4.91c0,.59.1,1.19.16,1.78.22,2.37.48,4.72.8,7a7.86,7.86,0,0,0,6.52,6.67,98,98,0,0,0,32,0,7.87,7.87,0,0,0,6.42-8.54c-1.3-13-3.67-41.65-1.75-63a7.93,7.93,0,0,0-2.86-6.85h0a7.75,7.75,0,0,0-3.47-1.62l-.41-.08a83.33,83.33,0,0,0-29.47.21,7.89,7.89,0,0,0-6.47,6.89A346.82,346.82,0,0,0,147.14,124.83Z"/><path class="cls-16" d="M147.14,124.83q0,.89,0,1.77a114.27,114.27,0,0,0,15.91,1,175.27,175.27,0,0,0,22.45-1.48l-.25-1.73C185.08,124.44,164.56,127.38,147.14,124.83Z"/><path class="cls-16" d="M147.36,131c0,.59.06,1.19.1,1.78a115,115,0,0,0,15.63,1,175.27,175.27,0,0,0,22.45-1.48l-.25-1.73C185.08,130.62,164.73,133.54,147.36,131Z"/><path class="cls-16" d="M147.8,137.74c0,.59.1,1.19.16,1.78a116.34,116.34,0,0,0,15.13.91A175.27,175.27,0,0,0,185.55,139l-.25-1.73C185.08,137.25,165.07,140.12,147.8,137.74Z"/><path class="cls-16" d="M187.29,153.24a7.87,7.87,0,0,0,6.42-8.54c-1.3-13-3.67-41.65-1.75-63a7.93,7.93,0,0,0-2.86-6.85h0a7.75,7.75,0,0,0-3.47-1.62l-.41-.08a5.18,5.18,0,0,0-3.33,2.3c-2.64,3.67-.21,29.05,0,45.55S179.86,153.63,187.29,153.24Z"/><path class="cls-17" d="M184.43,142.43a3.35,3.35,0,0,0,2.66,3.06c2.11.37,5.11.47,6.78-1.33,1.16-1.25.73-15.29.34-24-.06-1.31-.11-2.5-.17-3.5a3.7,3.7,0,0,0-3.42-3.67,9.8,9.8,0,0,0-5.93,1.39c-.92.68-1.31,3.51-1.4,7.2A197.63,197.63,0,0,0,184.43,142.43Z"/><path class="cls-18" d="M183.29,121.62a6.93,6.93,0,0,0,6.91,2.07,5.78,5.78,0,0,0,4-3.49c-.06-1.31-.11-2.5-.17-3.5a3.7,3.7,0,0,0-3.42-3.67,9.8,9.8,0,0,0-5.93,1.39C183.77,115.1,183.38,117.94,183.29,121.62Z"/><path class="cls-18" d="M146.3,110.1c2.07,2.17,35.93,3.92,36.11-.56s-1.19-25.56-.52-31.06,5.65-4.64,5.65-4.64a25.23,25.23,0,0,0-6.82-1.76c-.67-.09-1.35-.18-2-.25a110.51,110.51,0,0,0-21.47.33l-.72.12-.25.05c-3,.66-7.26,3-7.84,6.45S144.61,108.34,146.3,110.1Z"/><path class="cls-17" d="M156.5,80.8c-.2,6.75-.43,14.4,4.93,15.71a10.15,10.15,0,0,0,2.42.3,7.6,7.6,0,0,0,4.23-1.23c3.38-2.2,5.66-7.14,7.17-15.55,1.15-6.4,4.13-7.7,5.45-7.95-.67-.09-1.35-.18-2-.25-1.62,1-3.52,3.19-4.39,8-1.44,8-3.64,12.88-6.73,14.89a7.14,7.14,0,0,1-5.86.79c-4.57-1.11-4.37-8-4.17-14.71a39.68,39.68,0,0,0-.31-8.67l-.72.12-.25.05A39.33,39.33,0,0,1,156.5,80.8Z"/><path class="cls-10" d="M170.19,109.27c0,1.75,0,6,.06,9.5a1.11,1.11,0,0,1-1.08,1.14H169a1.12,1.12,0,0,1-1.11-1.12l0-9.53a1.11,1.11,0,0,1,1.1-1.12h.08A1.12,1.12,0,0,1,170.19,109.27Z"/><path class="cls-10" d="M155.59,108.79c0,1.75-.1,6-.09,9.5a1.11,1.11,0,0,1-1.1,1.12h-.14a1.12,1.12,0,0,1-1.09-1.14l.17-9.53a1.11,1.11,0,0,1,1.12-1.1h.08A1.12,1.12,0,0,1,155.59,108.79Z"/><path class="cls-16" d="M160.93,73.3a2,2,0,0,0,1.72-.34,4.19,4.19,0,0,1,4.85-5.16,5.56,5.56,0,0,1,4.29,1.53A5.39,5.39,0,0,1,173,73.05a2.18,2.18,0,0,0,1.74.16A6.55,6.55,0,0,0,167.49,66c-2.43,0-4.24.71-5.39,2.1A6.74,6.74,0,0,0,160.93,73.3Z"/><g class="cls-19"><polyline class="cls-20" points="281.28 69.93 277.78 71.7 279.53 67.4"/><ellipse class="cls-20" cx="284.74" cy="64.44" rx="7.4" ry="6.98"/><path class="cls-21" d="M283.42,67.79c1.61,0,3.25,0,4.73-.05.47,0,.88-.73.31-1a1,1,0,0,0,.59-.48.47.47,0,0,0-.29-.63c.56.13.78-.71.34-1a1.23,1.23,0,0,0,.47-.71.7.7,0,0,0-.34-.74,1.29,1.29,0,0,0-.58-.09h-2a4.16,4.16,0,0,0-.3-2.94c-.16-.26-.59-.58-.93-.37s-.23.66-.22,1a3.31,3.31,0,0,1-1.83,3.05S283.44,66.45,283.42,67.79Z"/><rect class="cls-21" x="280.4" y="63.82" width="2.44" height="3.96"/></g><g class="cls-19"><polyline class="cls-20" points="42.07 251.98 38.57 253.74 40.32 249.44"/><ellipse class="cls-20" cx="45.54" cy="246.49" rx="7.4" ry="6.98"/><path class="cls-21" d="M44.21,249.83c1.61,0,3.25,0,4.73-.05.47,0,.88-.73.31-1a1,1,0,0,0,.59-.48.47.47,0,0,0-.29-.63c.56.13.78-.71.34-1a1.23,1.23,0,0,0,.47-.71.7.7,0,0,0-.34-.74,1.29,1.29,0,0,0-.58-.09h-2a4.16,4.16,0,0,0-.3-2.94c-.16-.26-.59-.58-.93-.37s-.23.66-.22,1a3.31,3.31,0,0,1-1.83,3.05S44.23,248.49,44.21,249.83Z"/><rect class="cls-21" x="41.19" y="245.87" width="2.44" height="3.96"/></g></g></g></svg>