<svg id="Layer_1" height="512" viewBox="0 0 128 128" width="512" xmlns="http://www.w3.org/2000/svg" data-name="Layer 1"><path d="m113.854 103.947h-.9v-20.037a1.753 1.753 0 0 0 -.936-1.55l-17.813-9.354v-2.506a6.837 6.837 0 0 0 5.953-12.28l-20.613-11.668a38.711 38.711 0 0 0 1.6-4.925 50.33 50.33 0 0 0 1.449-13.2 1.75 1.75 0 0 0 -1.222-1.632c-7.921-2.506-13.857-4.9-16.691-6.1a1.755 1.755 0 0 0 -1.368 0c-2.834 1.2-8.77 3.6-16.691 6.1a1.751 1.751 0 0 0 -1.222 1.63 50.3 50.3 0 0 0 1.449 13.2 38.726 38.726 0 0 0 1.6 4.926l-20.607 11.673a6.843 6.843 0 0 0 3.38 12.792 6.755 6.755 0 0 0 2.573-.511v2.551l-17.718 9.3a1.751 1.751 0 0 0 -.936 1.55v20.037h-.995a1.75 1.75 0 0 0 0 3.5h99.708a1.75 1.75 0 0 0 0-3.5zm-4.4-18.979v18.979h-15.249v-26.987zm-34.107 18.979h-22.694v-22.693h22.694zm1.753-26.193h-26.2a1.75 1.75 0 0 0 -1.75 1.75v24.443h-11.85v-35.36l19.159-10.852a25.381 25.381 0 0 0 6.914 3.955 1.739 1.739 0 0 0 1.254 0 25.381 25.381 0 0 0 6.914-3.955l19.164 10.852v35.36h-11.858v-24.447a1.75 1.75 0 0 0 -1.747-1.746zm21.333-16.485a3.338 3.338 0 1 1 -3.289 5.81l-20.937-11.856a26.878 26.878 0 0 0 3.855-5.489zm-34.433-37.069c2.932 1.226 8.227 3.32 15.106 5.54a47.1 47.1 0 0 1 -1.35 11.024c-2.2 8.667-6.829 14.52-13.756 17.407-6.927-2.887-11.553-8.74-13.756-17.408a47.076 47.076 0 0 1 -1.35-11.023c6.879-2.219 12.174-4.313 15.106-5.54zm-33.679 43.192a3.339 3.339 0 0 1 -.754-6.123l20.371-11.535a26.878 26.878 0 0 0 3.855 5.489l-20.938 11.856a3.309 3.309 0 0 1 -2.534.313zm-11.68 17.576 15.159-7.958v26.937h-15.159z"/><path d="m60.652 45.379a1.746 1.746 0 0 0 1.25.527 1.75 1.75 0 0 0 1.25-.525l8.359-8.536a1.75 1.75 0 1 0 -2.5-2.449l-7.106 7.257-2.917-2.987a1.75 1.75 0 0 0 -2.5 2.445z"/></svg>