<svg height="487pt" viewBox="-99 0 487 487" width="487pt" xmlns="http://www.w3.org/2000/svg"><path d="m288 48c0-26.507812-21.492188-48-48-48h-192c-26.507812 0-48 21.492188-48 48v391c0 26.507812 21.492188 48 48 48h192c26.507812 0 48-21.492188 48-48zm-272 47h256v282h-256zm31.855469-79h192.289062c17.640625 0 31.855469 14.722656 31.855469 32.367188v30.632812h-256v-30.632812c0-17.644532 14.214844-32.367188 31.855469-32.367188zm192.289062 456h-192.289062c-17.640625 0-31.855469-14.722656-31.855469-32.367188v-46.632812h256v46.632812c0 17.644532-14.214844 32.367188-31.855469 32.367188zm0 0"/><path d="m109.964844 53h68.070312c4.417969 0 8-3.582031 8-8s-3.582031-8-8-8h-68.070312c-4.417969 0-8 3.582031-8 8s3.582031 8 8 8zm0 0"/><path d="m144 403.558594c-15.984375 0-28.945312 12.960937-28.945312 28.945312 0 15.988282 12.960937 28.945313 28.945312 28.945313s28.945312-12.957031 28.945312-28.945313c-.019531-15.976562-12.964843-28.925781-28.945312-28.945312zm0 41.890625c-7.148438 0-12.945312-5.792969-12.945312-12.945313 0-7.148437 5.796874-12.945312 12.945312-12.945312s12.945312 5.796875 12.945312 12.945312c-.007812 7.148438-5.800781 12.9375-12.945312 12.945313zm0 0"/><path d="m232 218v-63.3125c0-.148438.019531-.292969.011719-.4375 0-.109375.042969-.21875.042969-.328125-.03125-3.324219-2.113282-6.285156-5.234376-7.433594l-85.332031-31.367187c-1.78125-.65625-3.738281-.65625-5.519531 0l-85.335938 31.367187c-3.117187 1.148438-5.203124 4.101563-5.242187 7.421875-.039063 3.320313 1.976563 6.320313 5.066406 7.542969l22.542969 8.785156v59.722657c.011719 3.347656 2.101562 6.339843 5.242188 7.5 19.34375 7.210937 39.824218 10.902343 60.472656 10.902343 20.578125 0 40.992187-3.695312 60.265625-10.902343 3.089843-1.1875 5.101562-4.191407 5.019531-7.5v-59.722657l12-4.542969v52.40625c-8.160156 4.015626-12.167969 13.386719-9.433594 22.0625 2.730469 8.675782 11.386719 14.058594 20.375 12.675782 8.988282-1.382813 15.625-9.121094 15.621094-18.214844-.113281-7.085938-4.195312-13.511719-10.5625-16.625zm-93.269531-86.84375 62.734375 23.058594-7.558594 2.941406c-.265625.089844-.527344.191406-.785156.304688l-54.390625 21.167968-54.386719-21.164062c-.257812-.121094-.527344-.226563-.796875-.316406l-7.546875-2.9375zm-49.730469 93.144531v-10.859375c32.285156 9.699219 66.714844 9.699219 99 0v10.859375c-32.125 10.734375-66.875 10.734375-99 0zm99-27.648437c-32.125 10.738281-66.875 10.738281-99 0v-20.183594l46.796875 18.199219c.929687.359375 1.917969.542969 2.917969.542969.929687 0 1.851562-.183594 2.710937-.542969l46.574219-18.203125zm36.179688 40.398437c-1.34375 0-2.429688-1.085937-2.429688-2.429687 0-1.339844 1.085938-2.429688 2.429688-2.429688 1.339843 0 2.429687 1.089844 2.425781 2.429688 0 1.34375-1.085938 2.429687-2.425781 2.433594zm0 0"/><path d="m197.90625 294h-107.8125c-4.417969 0-8 3.582031-8 8s3.582031 8 8 8h107.8125c4.417969 0 8-3.582031 8-8s-3.582031-8-8-8zm0 0"/><path d="m197.90625 318h-107.8125c-4.417969 0-8 3.582031-8 8s3.582031 8 8 8h107.8125c4.417969 0 8-3.582031 8-8s-3.582031-8-8-8zm0 0"/><path d="m197.90625 341h-107.8125c-4.417969 0-8 3.582031-8 8s3.582031 8 8 8h107.8125c4.417969 0 8-3.582031 8-8s-3.582031-8-8-8zm0 0"/><path d="m90.09375 286h36.753906c4.417969 0 8-3.582031 8-8s-3.582031-8-8-8h-36.753906c-4.417969 0-8 3.582031-8 8s3.582031 8 8 8zm0 0"/></svg>