<svg xmlns="http://www.w3.org/2000/svg" style="fill:#94C1FF;" xmlns:xlink="http://www.w3.org/1999/xlink" viewBox="0 0 335.11 389.63"><defs><style>.cls-1,.cls-8{fill:#0000de;}.cls-1{opacity:0.74;}.cls-2{isolation:isolate;}.cls-3{fill:#adcdfc;}.cls-4{fill:#e2edff;}.cls-5{fill:#c7d8f2;}.cls-6{fill:#7baeff;}.cls-7{fill:#4da5dc;}.cls-9{fill:#e1e8f2;}.cls-10{fill:#e16b40;}.cls-11{fill:#ff8654;}.cls-12{fill:#0046a6;}.cls-13{fill:#003783;}.cls-14{fill:#ff9f75;}.cls-15{fill:#cfdae4;}.cls-16{fill:#00a5ff;}.cls-17{fill:#382747;}.cls-18{fill:#94a3c0;}.cls-19{fill:#fff;}.cls-20{fill:#ff5668;}.cls-21{fill:#b391ff;}.cls-22{fill:#d4d9df;}.cls-23{fill:#f2f8fd;}.cls-24{fill:url(#linear-gradient);}.cls-25{fill:url(#linear-gradient-2);}.cls-26{fill:#05ccff;}.cls-27{fill:#2689fd;}.cls-28{fill:#3548db;}.cls-29{fill:#58affb;}.cls-30{fill:#ee2c6a;}.cls-31{fill:#ee428c;}.cls-32{fill:#ff3d9d;}.cls-33{fill:#7cccff;}.cls-34{fill:#3eabff;}.cls-35{fill:#cc096a;}.cls-36,.cls-44{fill:none;}.cls-37{fill:#3278cc;}.cls-38{fill:#e2a029;}.cls-39{fill:#ffbe3d;}.cls-40{fill:#7974f5;}.cls-41{fill:url(#linear-gradient-3);}.cls-42{fill:url(#linear-gradient-4);}.cls-43{fill:#1ae5ff;}.cls-44{stroke:#16c5dc;stroke-miterlimit:10;}.cls-45{fill:#f1f1f1;}.cls-46{fill:#fdb913;}.cls-47{opacity:0.53;}.cls-48{fill:#ff4272;}.cls-49{fill:#212973;}.cls-50{fill:#1ce5ff;}.cls-51{fill:#00a935;}.cls-52{fill:#61e041;}.cls-53{fill:#00cc41;}.cls-54{fill:#14347c;}.cls-55{fill:#18388f;}.cls-56{fill:#ce7c56;}.cls-57{fill:#ffaa83;}.cls-58{fill:#4d2c63;}.cls-59{fill:#181893;}</style><linearGradient id="linear-gradient" x1="200.67" y1="203.06" x2="194.11" y2="253.6" gradientTransform="matrix(-1, 0, 0, 1, 374.98, 0)" gradientUnits="userSpaceOnUse"><stop offset="0" stop-color="#c6e6ff"/><stop offset="1" stop-color="#8d9fff"/></linearGradient><linearGradient id="linear-gradient-2" x1="335.7" y1="291.78" x2="354.44" y2="249.81" gradientTransform="translate(-165.5)" gradientUnits="userSpaceOnUse"><stop offset="0" stop-color="#1ae5ff"/><stop offset="1" stop-color="#eaeeee"/></linearGradient><linearGradient id="linear-gradient-3" x1="-140.31" y1="191.22" x2="-111.03" y2="-26.42" gradientTransform="matrix(-1, 0, 0, 1, 137.87, 0)" gradientUnits="userSpaceOnUse"><stop offset="0" stop-color="#1ae5ff"/><stop offset="0.26" stop-color="#64e8f9"/><stop offset="0.7" stop-color="#eaeeee"/></linearGradient><linearGradient id="linear-gradient-4" x1="-197.24" y1="130.9" x2="-185.51" y2="130.9" gradientTransform="matrix(-1, 0, 0, 1, 137.87, 0)" gradientUnits="userSpaceOnUse"><stop offset="0" stop-color="#5155d4"/><stop offset="1" stop-color="#45f7ff"/></linearGradient></defs><title>attach</title><g id="Layer_2" data-name="Layer 2"><g id="OBJECTS"><path class="cls-1" d="M304.12,336.29c-13.84-8-33.25-10.75-50.9-8.27l62.63-36.4c6.84-4,6.8-10.42-.08-14.4L172.41,194.47c-6.89-4-18-4-24.85,0l-49,28.47c-21.2-9.36-51.53-8.45-70.8,2.75s-20.77,28.78-4.54,41L5.14,277.23c-6.84,4-6.8,10.42.08,14.4l143.35,82.76c6.89,4,18,4,24.85,0L213.65,351c-4.22,10.24.59,21.48,14.43,29.47,21.13,12.2,55.32,12.2,76.31,0S325.25,348.49,304.12,336.29Z"/><g class="cls-2"><path class="cls-3" d="M87.9,244.89c-.57,6.28-6.48,10.55-11.81,12.85a45.34,45.34,0,0,1-18.5,3.43A44,44,0,0,1,38.79,257c-5.06-2.49-10.43-7-10.42-13.15,0,4.47.3,8.17,3.52,11.66,4.15,4.5,10.4,6.92,16.28,8.13C59.65,266,75.27,264.87,84,256c3.51-3.55,4-7.3,4-12Q88,244.46,87.9,244.89Z"/><path class="cls-4" d="M79.17,231.72c11.67,6.74,11.75,17.67.15,24.41s-30.48,6.74-42.15,0S25.45,238.46,37,231.72,67.5,225,79.17,231.72Z"/></g><g class="cls-2"><polygon class="cls-5" points="63.49 218.1 63.41 244.15 58.85 246.79 58.93 220.75 63.49 218.1"/><polygon class="cls-6" points="58.93 220.75 58.85 246.79 54.27 244.15 54.34 218.1 58.93 220.75"/><polygon class="cls-7" points="63.49 218.1 58.93 220.75 54.34 218.1 58.9 215.45 63.49 218.1"/></g><path class="cls-8" d="M29.29,133.64s-9.34,2.49-11.83,8.09-1.87,47.94,11.21,65.38S66,227,71.63,224.55s38-18.68,40.47-26.77-10-14.32-16.81-17.43-11.21-7.47-14.94-18.68-5.6-30.51-10-33.62S55.44,119.94,29.29,133.64Z"/><path class="cls-9" d="M85.12,122.38s-15.32-12.68-18.44-13c-3.74-.29-8.4,1-9.62,6.28a9.77,9.77,0,0,0,4.42,10.87c2.81,1.54,27.47,13.24,31.83,13.22s7.14-3.77,4.31-8.43S85.12,122.38,85.12,122.38Z"/><path class="cls-10" d="M58.63,106.5a1.57,1.57,0,0,0,0,.5c.23,1.14.94,4,1.11,5.26s-1.07,3.27-4.24,3.36-8.61-1-10.59-4.66a87.75,87.75,0,0,0-1.08-11.12Z"/><path class="cls-11" d="M65.44,83.44c-2.29-9.6-10.24-14.72-18.82-12.26,0,0-9.36,1.41-13.14,9.88s2.71,15.12,6.86,19.31c1.75,1.72,3.07,3,3.9,3.89.3.32.6.64.91.93l.09.09h0a19.7,19.7,0,0,0,8.28,4.49c3.84.94,8.29.07,10.58-2.62S67.74,93,65.44,83.44Z"/><path class="cls-12" d="M45.65,107.26S30.57,119.2,29.2,123,28,137.14,31.58,143.87s3.63,32.16,5,37.06,14.86,5.81,23.06,3.8,21.23-8.88,18.61-18.19c-3.87-13.75-2.95-27.6-2.64-32s-.8-15.27-3.18-22.49c-.5-1.52-5.87-3.65-5.87-3.65S61,105.84,45.65,107.26Z"/><path class="cls-13" d="M48.39,164.15c-6.23-7.89,2.91-34.87-7.89-42.34-3.29-2.28-6.12-2.85-8.46-2.56A13.79,13.79,0,0,0,29.2,123c-1.36,3.79-1.18,14.15,2.38,20.89s3.63,32.16,5,37.06c1.28,4.46,12.54,5.61,20.73,4.26l11.79-12.33S54.61,172,48.39,164.15Z"/><path class="cls-9" d="M45.14,109.28c13.11-1.21,19.15,1.05,20.65,1.74a38.85,38.85,0,0,1-.19,9.31c-1,6.2-3.5,23.22-3.5,23.22s-8.09-14-13.42-19.75c-3.75-4.05-7.44-7.87-9.3-9.78C42.53,111.35,45.14,109.28,45.14,109.28Z"/><path class="cls-11" d="M58.63,106.5a1.57,1.57,0,0,0,0,.5c.23,1.14.94,4,1.11,5.26s-1.07,3.27-4.24,3.36-8.61-1-10.59-4.66a87.75,87.75,0,0,0-1.08-11.12Z"/><path class="cls-14" d="M65.44,83.44c-2.29-9.6-10.24-14.72-18.82-12.26,0,0-9.36,1.41-13.14,9.88s2.71,15.12,6.86,19.31c1.75,1.72,3.07,3,3.9,3.89.3.32.6.64.91.93l.09.09h0a19.7,19.7,0,0,0,8.28,4.49c3.84.94,8.29.07,10.58-2.62S67.74,93,65.44,83.44Z"/><path class="cls-15" d="M63.93,123.8l-5.85-5.18-4.68,8.18-4.71-3C54,129.59,62.1,143.56,62.1,143.56s2.06-14.2,3.2-21.39Z"/><path class="cls-16" d="M63.53,133.83l-2.6-9.19.39-3.15-3.23-2.86-2.27,4,2.6,2.38.71,13.65c1.77,2.87,3,4.94,3,4.94S62.76,139.05,63.53,133.83Z"/><path class="cls-10" d="M32.4,80.1a14.28,14.28,0,0,0,.93,14C38,101.27,43,104.45,44.25,104.26s1.86-.5,1.54-1.44-1.87-4-1.87-4-5.29-.62-5.29-4,1.87-4,4-3.11,2.49,2.49,3.74,3.74,1.56,4.36,2.49,4,1.56-1.25,1.56-2.8a6.56,6.56,0,0,0-1.87-5.29c-1.87-1.87.31-5-1.56-7.47a18.3,18.3,0,0,0-3.11-3.42s1.25,1.87,7.47.62,9-.93,11.52-2.49,1.87-5,.31-6.23-5.29-1.87-9.65-3.42-6.85-.62-12.14.62S31.16,76.36,32.4,80.1Z"/><path class="cls-17" d="M120.2,267.51a6.5,6.5,0,0,0,3.11,5.4c3.32,2.28,3.94,3.74,6.64,4.77s5.19,4.57,3.94,7.06-7.06,2.91-10.79,1.87-4.36-4.36-7.89-5.6a13,13,0,0,1-5.81-3.74c-1-1-.62-5.19-.62-5.19l12.66-4.15"/><path class="cls-17" d="M136.39,255.47a6.5,6.5,0,0,0,3.11,5.4c3.32,2.28,3.94,3.74,6.64,4.77s5.19,4.57,3.94,7.06-7.06,2.91-10.79,1.87-4.36-4.36-7.89-5.6a13,13,0,0,1-5.81-3.74c-1-1-.62-5.19-.62-5.19l12.66-4.15"/><path class="cls-18" d="M37.59,181.07a22.72,22.72,0,0,1,.62,4.67c0,2.18-1.56,8.41,1.56,15.88s24,9,30.82,12.14a68.18,68.18,0,0,1,12.14,6.85c1.25.93,3,14.11,8.41,22s14.53,23.66,16.6,30.3A15.7,15.7,0,0,0,119,270.83c2.78-1.82,2.49-2.91,2.49-2.91s-10.79-23.66-13.28-33.62-5.4-21.59-10-24.49S79.1,196.53,75.78,194.45s-12.27-8.64-14-12.62S43,171.42,37.59,181.07Z"/><path class="cls-18" d="M54.72,170.79a22.72,22.72,0,0,1,.62,4.67c0,2.18-1.56,8.41,1.56,15.88s24,9,30.82,12.14a68.17,68.17,0,0,1,12.14,6.85c1.25.93,3,14.11,8.41,22s14.53,23.66,16.6,30.3a15.7,15.7,0,0,0,11.21-2.08c2.78-1.82,2.49-2.91,2.49-2.91S127.77,234,125.28,224s-5.4-21.59-10-24.49-19.09-13.28-22.42-15.36-12.27-8.64-14-12.62S60.11,161.14,54.72,170.79Z"/><g class="cls-2"><polygon class="cls-5" points="138.77 249.51 138.59 312.83 127.51 319.27 127.69 255.95 138.77 249.51"/><polygon class="cls-6" points="127.69 255.95 127.51 319.27 116.36 312.83 116.54 249.51 127.69 255.95"/><polygon class="cls-7" points="138.77 249.51 127.69 255.95 116.54 249.51 127.62 243.08 138.77 249.51"/></g><path class="cls-3" d="M320.91,206.14c0,.18,0,.37-.06.55s-.07.3-.11.45-.09.35-.15.52-.12.29-.18.43-.16.37-.26.55-.16.26-.24.39-.26.41-.41.61-.3.39-.46.58l-.12.13c-.23.25-.48.49-.74.73s-.36.3-.54.45-.32.26-.49.39-.42.28-.63.42-.43.29-.67.43L173.42,295.54a19.87,19.87,0,0,1-3.85,1.69,25.44,25.44,0,0,1-3.33.83c-.74.13-1.49.24-2.24.31s-1.3.11-1.95.13-1.2,0-1.8,0-1.16,0-1.73-.09l0,10.15q.86.07,1.73.09t1.8,0q1,0,1.95-.13c.76-.08,1.5-.18,2.24-.31a25.45,25.45,0,0,0,3.33-.83,19.86,19.86,0,0,0,3.85-1.69l142.42-82.77.21-.13c.16-.1.3-.2.45-.3s.44-.28.64-.43.33-.26.49-.39.37-.29.54-.45l.11-.09c.23-.21.43-.42.63-.64l.12-.14c.12-.13.24-.26.34-.4l.12-.18c.15-.2.29-.41.41-.61s.12-.17.17-.26l.06-.13c.1-.18.18-.36.26-.55s.11-.21.15-.32,0-.07,0-.11.1-.35.15-.53.08-.24.1-.35,0-.06,0-.09c0-.18,0-.37.06-.55s0-.24,0-.36,0-.1,0-.15l0-10.15C320.95,205.8,320.92,206,320.91,206.14Z"/><path class="cls-3" d="M156.81,298.23q-.88-.12-1.74-.3t-1.83-.45c-.73-.21-1.45-.45-2.13-.72a19.09,19.09,0,0,1-2.54-1.22L5.22,212.78c-3.46-2-5.2-4.63-5.19-7.25l0,10.15c0,2.62,1.72,5.25,5.19,7.25l143.35,82.76a19.11,19.11,0,0,0,2.54,1.22c.69.27,1.4.51,2.13.72s1.21.32,1.83.45,1.15.22,1.74.3,1.14.14,1.71.19l0-10.15Q157.66,298.35,156.81,298.23Z"/><path class="cls-4" d="M315.76,198.78c6.89,4,6.92,10.42.08,14.4L173.42,295.94c-6.84,4-18,4-24.85,0L5.22,213.18c-6.89-4-6.92-10.42-.08-14.4L147.56,116c6.84-4,18-4,24.85,0Z"/><polygon class="cls-19" points="161.69 228.76 200.93 251.56 228.54 235.63 189.29 212.82 161.69 228.76"/><path class="cls-20" d="M195,223.08l-6.17,3.59-7.82-2.3c2.18-2.5,7.45-3.49,11.77-2.22A9.72,9.72,0,0,1,195,223.08Z"/><path class="cls-21" d="M196.46,223.55c4.15,2.4,4.17,6.28,0,8.68a16.5,16.5,0,0,1-15,0c-3.32-1.92-4.1-4.71-2-7.12l9.45,2.79Z"/><path class="cls-3" d="M190.78,240.6c-.34.2-.35.51,0,.71a1.35,1.35,0,0,0,1.23,0l17.52-10.11c.34-.2.35-.51,0-.71a1.35,1.35,0,0,0-1.23,0Z"/><path class="cls-22" d="M202.89,236a.38.38,0,0,0,0,.71,1.37,1.37,0,0,0,1.24,0l7.43-4.29a.38.38,0,0,0,0-.72,1.36,1.36,0,0,0-1.23,0Z"/><path class="cls-22" d="M200.58,239.48c-.34.2-.35.52,0,.72a1.36,1.36,0,0,0,1.24,0l11.63-6.72c.34-.2.35-.51,0-.71a1.35,1.35,0,0,0-1.23,0Z"/><path class="cls-23" d="M207.9,261.24a1.05,1.05,0,0,1,0,2l-28,16.26a3.79,3.79,0,0,1-3.44,0L156.9,268.21a1.05,1.05,0,0,1,0-2l28-16.26a3.79,3.79,0,0,1,3.44,0Z"/><path class="cls-24" d="M208.61,262.32s0,.05,0,.08l0,.06,0,.07,0,.06,0,.08,0,.05-.06.09,0,0-.1.11,0,0-.07.06-.07.05-.09.06-.09.06-28,16.26a2.65,2.65,0,0,1-.34.16l-.09,0-.23.07-.24.06-.29.05h-.07l-.41,0h-.06l-.4,0h-.06l-.39-.07-.07,0-.34-.1-.06,0a2.62,2.62,0,0,1-.37-.18L156.9,268.21a1.41,1.41,0,0,1-.67-.73.84.84,0,0,1,0-.27v1.12a.8.8,0,0,0,0,.14,1.3,1.3,0,0,0,.71.87l19.55,11.29a2.62,2.62,0,0,0,.35.17h0l.06,0,.22.07.12,0,.07,0,.06,0,.24,0h.72l.27,0h.1l.21,0,.09,0,.24-.06.13,0,.1,0,.1,0a2.61,2.61,0,0,0,.34-.16l28-16.26,0,0,.06,0,.09-.06.07-.05.07-.06h0l0,0,.1-.11,0,0,0,0,.06-.09,0,0v0l0-.08,0,0h0l0-.07v0h0s0-.05,0-.08,0,0,0,0v-1.14S208.61,262.29,208.61,262.32Z"/><path class="cls-25" d="M205,261.6a.34.34,0,0,1,0,.64l-26.59,15.45a1.22,1.22,0,0,1-1.11,0L159.7,267.52a.34.34,0,0,1,0-.64l26.59-15.45a1.22,1.22,0,0,1,1.11,0Z"/><polygon class="cls-19" points="74.52 168.98 113.76 191.79 141.37 175.85 102.12 153.05 74.52 168.98"/><path class="cls-21" d="M107.87,163.31l-6.17,3.59-7.82-2.3c2.18-2.5,7.45-3.49,11.77-2.22A9.72,9.72,0,0,1,107.87,163.31Z"/><path class="cls-26" d="M109.29,163.78c4.15,2.4,4.17,6.28,0,8.68a16.5,16.5,0,0,1-15,0c-3.32-1.92-4.1-4.71-2-7.12l9.45,2.79Z"/><path class="cls-3" d="M103.61,180.83c-.34.2-.35.51,0,.71a1.35,1.35,0,0,0,1.23,0l17.52-10.11c.34-.2.35-.51,0-.71a1.35,1.35,0,0,0-1.23,0Z"/><path class="cls-22" d="M115.71,176.18a.38.38,0,0,0,0,.71,1.37,1.37,0,0,0,1.24,0l7.43-4.29a.38.38,0,0,0,0-.72,1.36,1.36,0,0,0-1.23,0Z"/><path class="cls-26" d="M113.41,179.7c-.34.2-.35.52,0,.72a1.36,1.36,0,0,0,1.24,0l11.63-6.72c.34-.2.35-.51,0-.71a1.35,1.35,0,0,0-1.23,0Z"/><polygon class="cls-8" points="137.63 239.28 137.63 241.64 132.19 244.8 132.19 242.44 137.63 239.28"/><polygon class="cls-8" points="132.19 242.44 132.19 244.8 85.95 218.1 85.96 215.75 132.19 242.44"/><polygon class="cls-8" points="137.63 239.28 132.19 242.44 85.96 215.75 91.4 212.59 137.63 239.28"/><g class="cls-2"><polygon class="cls-27" points="117.08 239.73 117.08 242.09 111.64 245.25 111.65 242.89 117.08 239.73"/><polygon class="cls-28" points="111.65 242.89 111.64 245.25 75.33 224.28 75.33 221.92 111.65 242.89"/><polygon class="cls-29" points="117.08 239.73 111.65 242.89 75.33 221.92 80.77 218.77 117.08 239.73"/></g><g class="cls-2"><polygon class="cls-30" points="86.75 234.54 86.75 236.9 81.31 240.06 81.32 237.7 86.75 234.54"/><polygon class="cls-31" points="81.32 237.7 81.31 240.06 64.69 230.46 64.7 228.1 81.32 237.7"/><polygon class="cls-32" points="86.75 234.54 81.32 237.7 64.7 228.1 70.13 224.94 86.75 234.54"/></g><path class="cls-3" d="M50.07,221.52c-.54.31-.54.81,0,1.12a2.12,2.12,0,0,0,1.94,0L79.62,206.7c.54-.31.54-.81,0-1.12a2.12,2.12,0,0,0-1.94,0Z"/><path class="cls-3" d="M69.15,214.19a.6.6,0,0,0,0,1.12,2.16,2.16,0,0,0,2,0l11.72-6.77a.6.6,0,0,0,0-1.13,2.14,2.14,0,0,0-1.94,0Z"/><path class="cls-3" d="M65.52,219.74c-.54.31-.56.82,0,1.13a2.15,2.15,0,0,0,2,0l18.34-10.59c.54-.31.54-.81,0-1.12a2.12,2.12,0,0,0-1.94,0Z"/><g class="cls-2"><path class="cls-33" d="M63.86,194.2l-4.39,2.55a15.84,15.84,0,0,0-14.12.12l-.23.14-4.42-2.55.23-.14C47.24,190.66,57.44,190.62,63.86,194.2Z"/><path class="cls-33" d="M64.54,194.6c5.21,3.26,5.75,8.13,1.6,11.71l-4.55-2.63c1.83-2.09,1.34-4.69-1.44-6.52Z"/><path class="cls-34" d="M65.57,206.77a14,14,0,0,1-1.43.95c-6.21,3.61-16.2,3.7-22.64.27l4.39-2.55a15.9,15.9,0,0,0,13.83-.27,8,8,0,0,0,1.36-1Z"/></g><path class="cls-34" d="M44.5,197.44c-3,2.26-2.76,5.49.7,7.61l-4.39,2.55c-5.9-3.53-6.16-9-.75-12.72Z"/><path class="cls-8" d="M150.79,76.36a8,8,0,0,1,3.64,6.31l0,35.29c0,2.32-1.65,3.25-3.67,2.09l-9.84-5.68-.48.67-1.92,2.7-1.9-4.91-.47-1.22-9.84-5.68a8,8,0,0,1-3.64-6.31l0-35.29c0-2.32,1.65-3.26,3.66-2.09Z"/><path class="cls-19" d="M133.73,76.74v1a.76.76,0,0,1-1.14.66l-4.68-2.72a.76.76,0,0,1-.38-.66V74a.76.76,0,0,1,1.14-.66l4.68,2.72A.76.76,0,0,1,133.73,76.74Z"/><path class="cls-3" d="M148.55,90.23v1a.76.76,0,0,1-1.14.66L127.89,80.61a.76.76,0,0,1-.38-.66V79a.76.76,0,0,1,1.14-.66l19.52,11.27A.76.76,0,0,1,148.55,90.23Z"/><polygon class="cls-19" points="132.54 89.84 132.54 90.98 129.9 100 128.77 99.35 131.4 90.34 127.95 88.35 127.95 87.19 132.54 89.84"/><path class="cls-19" d="M137.91,92.94V94.1l-3-1.72-.17,3.5c.33-.45.83-.49,1.52-.09a4.17,4.17,0,0,1,1.88,3.85v2.28c0,1.79-.75,2.52-2.29,1.63a4.68,4.68,0,0,1-2.28-4.27V98.5l1.07.62V100a2.55,2.55,0,0,0,1.18,2.37c.81.47,1.19,0,1.19-1V99.08a2.56,2.56,0,0,0-1.18-2.37c-.62-.36-1-.2-1.15.59v.26l-1.07-.62.3-6.32Z"/><path class="cls-19" d="M145.63,101.7a3,3,0,0,1,1.44,2.7v3.67c0,1.14-.45,1.63-1.45,1.05a3,3,0,0,1-1.45-2.73v-3.67C144.17,101.61,144.64,101.13,145.63,101.7Zm.7,6v-3.79a1.58,1.58,0,0,0-.72-1.47c-.51-.3-.73,0-.73.63v3.79a1.61,1.61,0,0,0,.73,1.48c.5.29.72,0,.72-.65"/><path class="cls-19" d="M142.09,100.86c0,1.13-.47,1.61-1.46,1a3,3,0,0,1-1.44-2.71V95.49c0-1.11.47-1.61,1.45-1a3,3,0,0,1,1.45,2.72Zm-.73-.36V96.7a1.61,1.61,0,0,0-.73-1.48c-.52-.3-.72,0-.72.65v3.8a1.55,1.55,0,0,0,.72,1.47c.51.3.73,0,.73-.63"/><polygon class="cls-19" points="144.77 96.9 145.44 97.29 141.42 106.65 140.73 106.25 144.77 96.9"/><path class="cls-3" d="M195.4,149.53c11.67,6.74,11.75,17.67.15,24.41s-30.48,6.74-42.15,0-11.72-17.67-.12-24.41S183.73,142.79,195.4,149.53Z"/><polygon class="cls-35" points="195.67 142.31 195.66 146.6 188.24 150.91 188.25 146.62 195.67 142.31"/><path class="cls-35" d="M165.83,149.65l.15-.06c.41-.16.84-.3,1.27-.44l.91-.26.7-.19,1-.21.72-.15.3,0,1.23-.17.36,0q.72-.08,1.44-.12h.27l1,0h1l.81,0,.9,0,.82.07.89.1.79.11.94.16,1,.2.23.05c.45.11.9.23,1.34.36l.37.12,1.08.37.31.11c.32.12.63.26.94.4l.46.2c.45.21.88.44,1.3.68v-5c-.42-.24-.85-.47-1.3-.68l-.46-.2c-.27-.12-.53-.24-.8-.35l-.14-.05-.31-.11-1.08-.37-.37-.12-.25-.08-1.08-.28-.23-.05-.53-.12-.44-.08-.94-.16-.38-.07-.42,0-.89-.1-.42,0-.4,0-.9,0-.45,0h-1.82l-.49,0h-.27l-1.21.09-.23,0-.36,0-1.23.17-.3,0-.14,0-.57.12-1,.21-.7.19-.91.26-.2.06q-.55.18-1.08.38l-.15.06c-.39.15-.76.31-1.13.48l-.33.15c-.41.2-.81.4-1.2.63L163,146l-.19.12-.32.2-.28.19-.3.21-.26.2-.28.22-.24.2-.26.22-.11.09-.09.09-.4.4-.13.14c-.16.18-.32.36-.46.54l0,0-.09.13-.25.34-.12.19-.19.31-.05.09-.07.13-.14.27-.1.22-.11.27-.05.12,0,.11-.09.26-.07.23-.06.26,0,.14V152c0,.09,0,.18,0,.27s0,.16,0,.23,0,.18,0,.27,0,.1,0,.16,0,.82,0,.87v4.29c0-.1,0-.21,0-.31s0-.18,0-.27,0-.16,0-.23,0-.18,0-.26l0-.24.06-.26.07-.23.08-.26.09-.23.11-.27.1-.22.14-.27.12-.21.19-.31.12-.19.25-.34.11-.15c.14-.18.3-.36.46-.54l.13-.14.4-.4.19-.18.25-.22.25-.2.28-.22.26-.2.3-.21.28-.19.32-.2.41-.25c.38-.22.79-.43,1.2-.63l.32-.15C165.07,150,165.44,149.8,165.83,149.65Z"/><polygon class="cls-35" points="163.27 161.14 163.26 165.43 155.84 169.75 155.85 165.46 163.27 161.14"/><path class="cls-36" d="M147.5,158.09V153.8c0,4.21,2.77,8.44,8.34,11.65v4.29C150.27,166.53,147.49,162.31,147.5,158.09Z"/><path class="cls-35" d="M155.85,165.46v4.29c-5.57-3.22-8.35-7.44-8.34-11.65V153.8c0,4.21,2.77,8.44,8.34,11.65"/><path class="cls-20" d="M195.67,142.31l-7.42,4.31c-6.94-4-18.17-4-25.07,0s-6.86,10.51.08,14.52l-7.42,4.31c-11.07-6.39-11.13-16.75-.13-23.14S184.6,135.92,195.67,142.31Z"/><path class="cls-37" d="M188.25,147.94v3c3.49,2,5.24,4.66,5.23,7.31v-4.29C193.49,151.29,191.75,150,188.25,147.94Z"/><polygon class="cls-37" points="195.58 166.89 195.57 169.87 188.1 165.56 188.11 162.58 195.58 166.89"/><path class="cls-37" d="M204,154.46c0,.14,0,.28,0,.43s0,.25,0,.37,0,.28-.07.42,0,.25-.08.37-.06.28-.1.41l-.11.37c0,.14-.09.27-.14.41l-.14.36-.18.43-.17.36-.22.42-.19.34-.31.5-.2.3c-.13.18-.26.37-.4.55l-.18.24c-.23.29-.47.57-.73.85l-.21.22q-.31.32-.64.64l-.31.29-.41.36-.39.32-.44.35-.42.31-.48.34-.45.3-.51.32-.65.4-.22.12v4.29l.22-.12.34-.2.31-.2L197,169l.45-.3.48-.34.42-.31.44-.35.39-.32.41-.36.17-.15.14-.14q.33-.32.64-.64l.21-.22c.26-.28.5-.57.73-.86l0,0,.15-.2c.14-.18.27-.36.4-.55l.2-.3.31-.5.08-.14.11-.21.22-.42.17-.36.18-.43.08-.19.06-.17c0-.14.09-.27.14-.41s.08-.25.11-.37.07-.27.1-.41,0-.15.05-.22,0-.1,0-.15,0-.28.07-.42,0-.25,0-.37,0-.28,0-.43,0-.17,0-.25,0-.17,0-.25V154C204,154.13,204,154.29,204,154.46Z"/><path class="cls-8" d="M195.67,143.63c11.07,6.39,11.12,16.75.13,23.14l-.22.12-7.47-4.31.22-.12c6.9-4,6.86-10.51-.08-14.52Z"/><path class="cls-38" d="M191.39,171.83l.92-.37.54-.23.95-.44.45-.21c.45-.23.9-.46,1.33-.71v-1c-.43.25-.88.48-1.33.71l-.45.21-.94.44-.54.23-.92.37-.57.21-1,.33-.61.2-.47.14-.86.25-.48.13-.92.23-.43.1-1.37.28v1l1.36-.28.42-.1.92-.23.48-.13.86-.25.47-.14.24-.07.37-.13,1-.33Z"/><path class="cls-39" d="M195.58,168.91a35.55,35.55,0,0,1-10.83,3.83L181.3,167a22.43,22.43,0,0,0,6.81-2.38Z"/><path class="cls-40" d="M183.54,172.12l-.85.14-1,.13-.85.1-1.59.14h-.14c-.59,0-1.18.07-1.77.08H175l-1.45,0h-.28c-.57,0-1.13-.07-1.7-.12l-.45,0-1.31-.14-.47-.06c-.56-.08-1.12-.16-1.68-.26h0c-.55-.1-1.1-.21-1.64-.32l-.58-.13-1.11-.27-.6-.16-.94-.27-.86-.27-.86-.29-.83-.3c-.42-.16-.83-.32-1.24-.5l-.12-.05c-.47-.21-.94-.42-1.39-.65l-.33-.17c-.46-.23-.91-.47-1.34-.72v1.79c.44.25.89.49,1.34.72l.33.17c.46.22.92.44,1.39.65l.12,0,.91.38.33.12.83.3.86.29.86.27.52.16.42.11.6.16,1.11.27.58.13.25.06,1.39.26h0l1.38.22.29,0,.47.06,1.31.14.45,0,.23,0,1.47.1h.28l1,0h2.89l1.59-.08h.14l1.4-.12.19,0,.85-.1,1-.13.85-.14.73-.12.49-.09v-1.79Z"/><path class="cls-21" d="M181.3,166.14l3.45,5.77c-9.81,1.88-21.07.57-28.9-4l7.42-4.31C168.16,166.47,175.17,167.3,181.3,166.14Z"/><path class="cls-41" d="M197.27,1,197,.84l-.29-.15-.29-.13-.28-.12L195.9.33l-.05,0h0l-.21-.07-.29-.08L195,.09,194.73,0l-.21,0h-.44l-.37,0-.41.06h0a3.6,3.6,0,0,0-.47.13,3.37,3.37,0,0,0-.57.26L187.56,3.2a3.46,3.46,0,0,1,1-.39h0a4.19,4.19,0,0,1,1.19-.06h0a5.71,5.71,0,0,1,1.31.28h0a8.12,8.12,0,0,1,1.42.66l130.8,75.52,4.68-2.72Z"/><path class="cls-42" d="M335.1,88.36q0-.17,0-.34t0-.34q0-.17,0-.35T335,87h0c0-.11,0-.23-.06-.34l-.07-.37-.09-.37-.1-.37-.08-.29v0l0-.06-.12-.37-.13-.36-.13-.34-.14-.34-.11-.26v0l0-.06-.16-.34-.18-.37-.22-.42-.25-.45,0-.08-.05-.09q-.25-.42-.52-.83t-.45-.64l-.31-.41-.27-.34-.27-.32-.27-.3-.06-.06,0,0-.21-.22-.3-.29L330,77.9l-.31-.27-.16-.13,0,0-.12-.1-.31-.24-.31-.22-.3-.2-.3-.18-.07,0-4.68,2.72a10.93,10.93,0,0,1,1.41,1l0,0a13.51,13.51,0,0,1,1.3,1.21l0,0a16.51,16.51,0,0,1,2.21,3l0,.08a17,17,0,0,1,.83,1.64v0a15.69,15.69,0,0,1,.64,1.73v0a13.47,13.47,0,0,1,.4,1.74h0a10.78,10.78,0,0,1,.14,1.72l-.25,89.37a8,8,0,0,1-.14,1.52v0a5.63,5.63,0,0,1-.4,1.24v0a4.12,4.12,0,0,1-.53.82c-.06.08-.13.17-.2.24a3.46,3.46,0,0,1-.77.64l4.68-2.72a3.46,3.46,0,0,0,.77-.64c.07-.07.13-.16.2-.24a3.81,3.81,0,0,0,.25-.32,4.45,4.45,0,0,0,.27-.48v0c.05-.12.1-.23.15-.36s.09-.24.12-.37.07-.24.09-.36l0-.16v0l0-.15c0-.11,0-.22.05-.34s0-.22,0-.34,0-.22,0-.33,0-.23,0-.34v0l.25-89.37Q335.11,88.52,335.1,88.36Z"/><path class="cls-8" d="M323.39,79.21a15.51,15.51,0,0,1,7,12.19l-.25,89.37c0,4.48-3.18,6.29-7.09,4l-130.8-75.52a15.51,15.51,0,0,1-7-12.19l.25-89.37c0-4.48,3.18-6.29,7.09-4Z"/><path class="cls-8" d="M285.48,42.56a4.87,4.87,0,0,1,2.21,3.83l-.08,28.09c0,1.41-1,2-2.23,1.27L244.28,52a4.87,4.87,0,0,1-2.21-3.83l.08-28.09c0-1.41,1-2,2.23-1.27Z"/><path class="cls-19" d="M207.65,30.1v1.28a1,1,0,0,1-1.47.84l-6-3.49a1,1,0,0,1-.49-.85V26.6a1,1,0,0,1,1.47-.84l6,3.49A1,1,0,0,1,207.65,30.1Z"/><path class="cls-43" d="M226.68,47.42V48.7a1,1,0,0,1-1.47.84L200.15,35.07a1,1,0,0,1-.49-.85V32.95a1,1,0,0,1,1.47-.84l25.06,14.47A1,1,0,0,1,226.68,47.42Z"/><polyline class="cls-44" points="196.12 89.18 206.1 84.09 212.62 94.64 219.9 102.04 227.18 97.65 242.74 92.63 249.77 102.67 256.8 108.44 263.2 117.85 271.86 99.66 282.4 104.67 287.92 100.16 299.34 103.17 316.28 101.66"/><path class="cls-45" d="M255.12,31.75c-3.79-2.19-7.37-1.63-8.85,1.82-1.85,4.31.25,11.57,4.72,16.59l1-2.41c-3-3.53-4.43-8.51-3.15-11.49,1-2.43,3.57-2.82,6.24-1.28a10.87,10.87,0,0,1,2,1.47l1-2.41A15.64,15.64,0,0,0,255.12,31.75Z"/><path class="cls-46" d="M258.1,34l-1,2.41.49.48c3.44,3.54,5.11,9,3.75,12.15-.05.11-.1.22-.16.33l-.06.11c-1,1.75-2.9,2.18-5,1.33a7.74,7.74,0,0,1-1-.49l-.27-.16-.41-.27-.06,0c-.27-.19-.54-.4-.81-.63l-.1-.09-.3-.27-.11-.1-.39-.38c-.21-.22-.41-.44-.6-.66l-1,2.41c.2.22.4.44.6.65l.56.55.16.15.43.38.14.13c.38.33.77.63,1.15.9l.09.06.53.35.06,0,.36.21q.43.25.85.45l.61.27c3.22,1.28,6.1.47,7.39-2.53,1.93-4.5-.45-12.22-5.32-17.24Z"/><path class="cls-19" d="M272.91,47.31V48a.56.56,0,0,1-.85.49l-3.48-2a.56.56,0,0,1-.28-.49v-.74a.56.56,0,0,1,.85-.49l3.48,2A.56.56,0,0,1,272.91,47.31Z"/><path class="cls-19" d="M283.91,57.32v.74a.56.56,0,0,1-.85.49l-14.48-8.36a.56.56,0,0,1-.28-.49V49a.56.56,0,0,1,.85-.49l14.48,8.36A.56.56,0,0,1,283.91,57.32Z"/><g class="cls-47"><path class="cls-19" d="M277.91,61.21V62a.56.56,0,0,1-.85.49l-8.51-4.91a.56.56,0,0,1-.28-.49V56.3a.56.56,0,0,1,.85-.49l8.51,4.91A.56.56,0,0,1,277.91,61.21Z"/></g><path class="cls-29" d="M281.65,59.7v.74a.56.56,0,0,1-.85.49l-12.24-7.07a.56.56,0,0,1-.28-.49v-.74a.56.56,0,0,1,.85-.49l12.24,7.07A.56.56,0,0,1,281.65,59.7Z"/><path class="cls-48" d="M316.32,92.4c-4.22-2.44-7.66-.47-7.68,4.37S312,107.52,316.27,110s7.64.48,7.66-4.36A16.79,16.79,0,0,0,316.32,92.4Z"/><path class="cls-49" d="M316.3,97.21c-1.91-1.1-3.46-.21-3.47,2a7.59,7.59,0,0,0,3.45,6c1.91,1.1,3.46.22,3.46-2A7.59,7.59,0,0,0,316.3,97.21Z"/><path class="cls-50" d="M208.18,46.61v1.32a1,1,0,0,1-1.51.87l-6.22-3.58a1,1,0,0,1-.5-.87V43a1,1,0,0,1,1.51-.87l6.22,3.58A1,1,0,0,1,208.18,46.61Z"/><path class="cls-50" d="M227.86,64.42v1.32a1,1,0,0,1-1.51.87l-25.9-14.84a1,1,0,0,1-.51-.87V49.58a1,1,0,0,1,1.51-.87l25.9,14.85A1,1,0,0,1,227.86,64.42Z"/><g class="cls-47"><path class="cls-50" d="M217.19,71.4v1.32a1,1,0,0,1-1.51.87l-15.22-8.72A1,1,0,0,1,200,64V62.67a1,1,0,0,1,1.51-.87l15.22,8.72A1,1,0,0,1,217.19,71.4Z"/></g><path class="cls-50" d="M223.85,68.67V70a1,1,0,0,1-1.51.87L200.46,58.32a1,1,0,0,1-.51-.87V56.13a1,1,0,0,1,1.51-.87l21.88,12.54A1,1,0,0,1,223.85,68.67Z"/><g class="cls-2"><polygon class="cls-51" points="297.53 158.04 301.06 155.99 300.99 179.96 297.46 182.01 297.53 158.04"/><path class="cls-52" d="M304.74,157.4v-.21h0v-.27l0,0h0l-11-21.88v0l0-.05-.05-.09,0,0,0,0,0,0,0,0h0l0,0,0,0,0,0,0,0,0,0,0,0,0,0,0,0,0,0h-.4l-.05,0-3.53,2.05a.33.33,0,0,1,.21,0h0a.61.61,0,0,1,.24.08,1.09,1.09,0,0,1,.26.21h0a1.47,1.47,0,0,1,.22.32l11,21.88a1.36,1.36,0,0,1,.11.31h0a.91.91,0,0,1,0,.27h0a.54.54,0,0,1-.06.21h0a.33.33,0,0,1-.12.13l3.53-2.05a.32.32,0,0,0,.11-.1l0,0h0l0,0v-.15h0v-.05Z"/><path class="cls-53" d="M289.6,136.51a1.3,1.3,0,0,1,.48.54l11,21.88c.32.65,0,1.18-.48.88L297.53,158l-.07,24-16.06-9.27.07-24-3-1.71c-.52-.3-.81-1.16-.48-1.43l11.08-9.14A.42.42,0,0,1,289.6,136.51Z"/></g><polygon class="cls-19" points="175.64 187.61 207.4 220.04 238.25 212.02 206.49 179.59 175.64 187.61"/><g class="cls-2"><path class="cls-4" d="M209.74,189.6l-3,1.15a10.15,10.15,0,0,0-8.93-1.41l-.16.07-2.52-2.08.16-.06A16.36,16.36,0,0,1,209.74,189.6Z"/><path class="cls-4" d="M210.13,189.92c3,2.61,2.78,5.74-.22,7.57l-2.6-2.14c1.37-1.13,1.34-2.82-.23-4.27Z"/><path class="cls-34" d="M209.5,197.72a9,9,0,0,1-1,.45c-4.3,1.63-10.63.63-14.33-2.21l3-1.15a10.19,10.19,0,0,0,8.77,1.29,5.09,5.09,0,0,0,1-.48Z"/></g><path class="cls-34" d="M197.17,189.61c-2.13,1.11-2.32,3.18-.36,4.88l-3,1.15c-3.36-2.85-2.94-6.36.86-8.12Z"/><path class="cls-18" d="M206.59,348s-2.49,1.71-.16,5.76,4.36,1.56,9.65,5.6,7.16,4.83,10,4.51,4.51-1.71,5-3.27-.93-4.2-.93-4.2Z"/><path class="cls-17" d="M229,348.14s1.09,5.29,1.71,9.34c.16,1.87-2.33,4.41-5.92,4.25s-5.6-1.25-6.85-2.8-9-4.57-10.43-5.81-1.71-5-1.09-5.92a4.7,4.7,0,0,1,5.45-1.4c2.49,1.09,4.51,3.11,9.5,3.42S229,348.14,229,348.14Z"/><path class="cls-18" d="M231.29,334.5s-2.49,1.71-.16,5.76,4.36,1.56,9.65,5.6,7.16,4.83,10,4.51,4.51-1.71,5-3.27-.93-4.2-.93-4.2Z"/><path class="cls-17" d="M253.7,334.65s1.09,5.29,1.71,9.34c.16,1.87-2.34,4.41-5.92,4.25s-5.6-1.25-6.85-2.8-9-4.57-10.43-5.81-1.71-5-1.09-5.92a4.7,4.7,0,0,1,5.45-1.4c2.49,1.09,4.51,3.11,9.5,3.42S253.7,334.65,253.7,334.65Z"/><path class="cls-54" d="M234.35,291.59c1.25,10,6.23,36.11,7.06,45.25,0,0,2.08,3.32,8.3,2.49l3-1.23a2.86,2.86,0,0,0,1.75-3c-.63-5-2-17.72-1.38-25.24.83-9.55-1.66-15.36-1.66-15.36.21-3.11.62-13.91-5.6-16.81,0,0-15.25-2.8-11.42,13.91"/><path class="cls-55" d="M247,282.25l-1.66,3.32s-25.53,1.25-32.38,8.72c0,0-4.57.83-3.32,10.79s6.23,36.11,7.06,45.25c0,0,2.08,3.32,8.3,2.49l3-1.23a2.86,2.86,0,0,0,1.75-3c-.63-5-2-17.72-1.38-25.24.83-9.55-1.66-15.36-1.66-15.36A130.44,130.44,0,0,1,249.92,315c12,5,22.42-.83,27-3.32a29.76,29.76,0,0,0,6.23-4.15A19,19,0,0,0,294.33,303c5.4-4.57,6.23-16.6.42-23.66S247,282.25,247,282.25Z"/><path class="cls-56" d="M256.14,219.15s4.13-1.53,3.85-7c-1.25-5.43-2.77-5.79-2.77-5.79S263,201,270,202.67c0,0,4.3,8.72,9.16,12.46C279.12,215.13,275.24,225.38,256.14,219.15Z"/><path class="cls-38" d="M265.17,222.27s15.25-12.76,18.37-13.08c3.74-.31,8.41.93,9.65,6.23a9.77,9.77,0,0,1-4.36,10.9c-2.8,1.56-27.4,13.39-31.76,13.39s-7.16-3.74-4.36-8.41S265.17,222.27,265.17,222.27Z"/><path class="cls-39" d="M269.84,213.76s-16.19,5.4-20.75,12.87-3.74,15.77-.42,27.4-3.32,22-1.66,28.23,13.28,12,30.3,9.13,18.26-9.55,19.51-13.28-3.32-21.59.83-36.11-4.15-24.49-7.47-27S280.22,209.19,269.84,213.76Z"/><path class="cls-38" d="M290.18,215c-3.32-2.49-10-5.81-20.34-1.25,0,0-16.19,5.4-20.75,12.87a20.94,20.94,0,0,0-2.4,5.62c6.56-8.52,15.86-12.26,21.91,2.27,5.65,13.56-8.73,53.43-21.29,40.9a15.59,15.59,0,0,0-.29,6.84c1.66,6.23,13.28,12,30.3,9.13s18.26-9.55,19.51-13.28-3.32-21.59.83-36.11S293.5,217.49,290.18,215Z"/><path class="cls-19" d="M254.38,220.81s4.36,2.8,15.25,1.25,11.52-9.34,10.58-10a20.31,20.31,0,0,1-2.8-3.11s-11.52,5.29-15.57,6.85-6.23,2.49-6.23,2.49Z"/><path class="cls-57" d="M247.22,186.88s-.93,11.21,5,18.68,11.83,3.11,15.57,1.25,5.29-5,6.54-14S275.55,175,269,172.25s-13.7-3.42-17.75,3.42S247.22,186.88,247.22,186.88Z"/><path class="cls-58" d="M251.58,173.49s-5.29,4-5,10-1.56,6.85-.93,10,5.6,4,5.92,8.41,6.85,5.92,10.27,7.16,9-2.8,10.58-5,1.25-7.78,3.11-12.76.93-11.21-.62-15.57-4.67-5.29-4.67-5.29a7.59,7.59,0,0,0-5.29-4C261.23,165.71,249.71,166.33,251.58,173.49Z"/><g class="cls-2"><path class="cls-3" d="M301.47,357.59c-.57,6.28-6.48,10.55-11.81,12.85a45.34,45.34,0,0,1-18.5,3.43,44,44,0,0,1-18.8-4.17c-5.06-2.49-10.43-7-10.42-13.15,0,4.47.3,8.17,3.52,11.66,4.15,4.5,10.4,6.92,16.28,8.13,11.47,2.37,27.08,1.22,35.8-7.61,3.51-3.55,4-7.3,4-12Q301.52,357.16,301.47,357.59Z"/><path class="cls-4" d="M292.74,344.42c11.67,6.74,11.75,17.67.15,24.41s-30.48,6.74-42.15,0-11.72-17.67-.12-24.41S281.07,337.68,292.74,344.42Z"/></g><g class="cls-2"><polygon class="cls-5" points="277.05 330.8 276.98 356.85 272.42 359.49 272.5 333.44 277.05 330.8"/><polygon class="cls-6" points="272.5 333.44 272.42 359.49 267.84 356.85 267.91 330.8 272.5 333.44"/><polygon class="cls-7" points="277.05 330.8 272.5 333.44 267.91 330.8 272.47 328.15 277.05 330.8"/></g><path class="cls-8" d="M330.18,241.86a5.36,5.36,0,0,0-7.12-4.87c-14.89,5.22-49,17.59-51.21,22-2.09,4.18-8.84,27.52-12.16,39.22a5.36,5.36,0,0,1-7.88,3.14l-20.63-12.16a5.36,5.36,0,0,0-8,5.5l3.31,19.87a5.36,5.36,0,0,0,2.62,3.77L251.16,331a42.44,42.44,0,0,0,40.12,1.16l17-8.51a42.44,42.44,0,0,0,23.43-39.51Z"/><path class="cls-59" d="M271.84,259c-2.09,4.18-8.84,27.52-12.16,39.22a5.36,5.36,0,0,1-7.88,3.14l-20.63-12.16a5.36,5.36,0,0,0-8,5.5l3.31,19.87a5.33,5.33,0,0,0,.42,1.32l.8,1.24a5.32,5.32,0,0,0,1.4,1.21L251.16,331a42.4,42.4,0,0,0,14.93,5.18c17.9-13.89,15.65-71.88,9.15-76.75a9,9,0,0,0-2.56-1.41A3.49,3.49,0,0,0,271.84,259Z"/><path class="cls-39" d="M232,241.36s15.25-12.76,18.37-13.08c3.74-.31,8.41.93,9.65,6.23a9.77,9.77,0,0,1-4.36,10.9c-2.8,1.56-27.4,13.39-31.75,13.39s-7.16-3.74-4.36-8.41S232,241.36,232,241.36Z"/><path class="cls-57" d="M210.48,221.12a11.2,11.2,0,0,1-.93-2.65c-.16-1.09.47-2.49-.16-5s-1.71-4.67-2.18-6.38c-1.25-1.56-2.33,1.25-1.4,3.58s.62,3.74-.31,3.89-4.83-2.18-5.92-3.42-7.32-7.32-7.94-6.54-.62,1.56,1.56,3.89,3,3.42,3.11,4a10.29,10.29,0,0,0,.78,3.11c.78,1.87.16,3.11,1.56,4.83s4,2,5.29,3.11l1.25,1.09Z"/><path class="cls-39" d="M223.87,258.8s-6.54,1.25-10.07-6-9.55-26.77-10.38-28.64a7.86,7.86,0,0,1,7.26-4.36s5.81,11.42,9.13,16.6S235,256.72,223.87,258.8Z"/><path class="cls-14" d="M127.66,135s2-1.29,3.23-.92a52.49,52.49,0,0,0,6.64,1.11c1.29.09,3.87-2.21,4.33-2.58s.74-1.2,1.29-1.75.83-.46.83-1.48,1-1.94,1.48-2.4,2.31-1.57,2.12-2.4-1.11-.37-1.66-.18-2.67,2.12-3.6,2.67a11.49,11.49,0,0,1-4.24,1.38,9.12,9.12,0,0,1-2.12-.28s-.28,0,.83-.37a14.63,14.63,0,0,1,2.67-.28c.92-.18,1.38-.74,1.29-1.2s-1.29-.46-1.75-.46a36.28,36.28,0,0,1-4.33-.09c-1.11-.18-3,1.66-3.32,2a8.83,8.83,0,0,1-3.32,1C127,129,127.66,135,127.66,135Z"/><path class="cls-9" d="M88,134.06s1.93,6.37,10,6.12,28.15-4,30.19-4.1a7.86,7.86,0,0,0,.49-8.46s-12.81.15-18.95-.39S84.65,123.26,88,134.06Z"/><path class="cls-9" d="M45.24,146.81s-3.37-19.6-5.55-21.85c-2.65-2.65-7-4.73-11.39-1.5a9.77,9.77,0,0,0-3.73,11.13c1.13,3,12.23,27.93,15.55,30.75s7.88,1.78,8.76-3.59S45.24,146.81,45.24,146.81Z"/><path class="cls-14" d="M79.26,157.25s2.65.16,3.58.16,8.09-.62,9.34-.62,1.25,1.4,1.25,1.4a9.68,9.68,0,0,1,1.25,2.8,7.71,7.71,0,0,0,.31,2.65c.31.78-.16,1.4-.47,2s-1.09.93-1.87,1.4a2.52,2.52,0,0,1-2.33.16c-.62-.31-.62-.47.16-.93a8.25,8.25,0,0,0,1.4-1.09,4.28,4.28,0,0,1-2.33,1.09,10.07,10.07,0,0,1-4.83-.47l-3.42-1.71-2.49-.31Z"/><path class="cls-9" d="M39.61,162.7s1.93,6.37,10,6.12,28.15-4,30.19-4.1a7.86,7.86,0,0,0,.49-8.46s-12.81.15-18.95-.39S36.29,151.9,39.61,162.7Z"/></g></g></svg>